<svg width="847" height="633" viewBox="0 0 847 633" fill="none" xmlns="http://www.w3.org/2000/svg">
<path d="M785.006 523.425C784.731 523.265 784.689 523.012 784.689 522.876C784.689 522.741 784.731 522.489 785.006 522.328L808.73 508.631C810.321 507.713 812.104 507.256 813.887 507.256C815.67 507.256 817.453 507.713 819.044 508.631L842.77 522.328C843.044 522.489 843.086 522.741 843.086 522.876C843.086 523.012 843.044 523.265 842.77 523.425L819.045 537.123C815.863 538.958 811.912 538.958 808.733 537.123H808.732L785.006 523.425ZM806.85 505.374L783.126 519.072C781.751 519.865 780.928 521.288 780.928 522.876C780.928 524.464 781.751 525.888 783.126 526.681L806.85 540.38C809.021 541.633 811.454 542.261 813.887 542.261C816.322 542.261 818.756 541.633 820.925 540.38L844.648 526.681C846.025 525.888 846.847 524.464 846.847 522.876C846.847 521.288 846.025 519.865 844.648 519.072L820.923 505.374C818.754 504.121 816.321 503.494 813.887 503.494C811.454 503.494 809.02 504.121 806.85 505.374Z" fill="url(#paint0_linear_1250_1227)"/>
<path d="M739.887 462.756L699.058 439.183C697.956 438.545 697.836 437.491 697.836 437.067C697.836 436.642 697.956 435.588 699.058 434.95L739.884 411.379C745.779 407.98 753.095 407.98 758.99 411.379L799.819 434.95C800.921 435.588 801.04 436.642 801.04 437.067C801.04 437.491 800.921 438.547 799.819 439.185L758.991 462.756C756.043 464.456 752.741 465.306 749.438 465.306C746.136 465.306 742.834 464.456 739.887 462.756ZM738.005 408.121L697.179 431.693C695.234 432.814 694.073 434.822 694.073 437.067C694.073 439.311 695.234 441.318 697.179 442.439L738.007 466.013C741.533 468.051 745.484 469.067 749.439 469.067C753.39 469.067 757.346 468.049 760.871 466.013L801.701 442.442C803.643 441.318 804.802 439.309 804.802 437.064C804.802 434.822 803.641 432.814 801.699 431.693L760.869 408.121C757.343 406.085 753.39 405.066 749.437 405.066C745.483 405.066 741.529 406.086 738.005 408.121Z" fill="url(#paint1_linear_1250_1227)"/>
<path d="M46.3386 497.993L5.50972 474.421C4.40638 473.783 4.28763 472.727 4.28763 472.302C4.28763 471.878 4.40638 470.824 5.5072 470.186L46.336 446.615C49.2831 444.915 52.5864 444.064 55.8888 444.064C59.1904 444.064 62.4937 444.915 65.4407 446.615L106.27 470.188C107.373 470.826 107.491 471.881 107.491 472.304C107.491 472.729 107.373 473.783 106.27 474.421L65.4433 497.993C62.4954 499.692 59.1929 500.542 55.8905 500.542C52.588 500.542 49.2856 499.692 46.3386 497.993ZM44.457 443.357L3.62813 466.93C1.68593 468.051 0.525269 470.058 0.525269 472.3C0.525269 474.545 1.68423 476.554 3.62813 477.678L44.4595 501.25C47.9851 503.286 51.9361 504.303 55.8905 504.303C59.8423 504.303 63.7984 503.285 67.3223 501.25L108.149 477.678C110.093 476.557 111.254 474.549 111.254 472.304C111.254 470.06 110.093 468.053 108.149 466.931L67.3198 443.357C63.795 441.32 59.8423 440.301 55.8888 440.301C51.9353 440.301 47.9818 441.32 44.457 443.357Z" fill="url(#paint2_linear_1250_1227)"/>
<path d="M194.319 335.389L137.484 302.574C136.179 301.819 135.399 300.47 135.399 298.961C135.399 297.454 136.179 296.105 137.484 295.35L194.316 262.537C202.753 257.667 213.236 257.662 221.679 262.537L278.514 295.352C279.819 296.107 280.599 297.455 280.599 298.964C280.599 300.472 279.819 301.821 278.514 302.575L221.682 335.389C217.462 337.824 212.731 339.041 208 339.041C203.27 339.041 198.538 337.824 194.319 335.389ZM192.469 259.334L135.636 292.146C133.171 293.57 131.7 296.116 131.7 298.961C131.7 301.807 133.171 304.354 135.636 305.777L192.47 338.591C197.26 341.357 202.63 342.74 207.999 342.74C213.369 342.74 218.741 341.357 223.529 338.591L280.362 305.779C282.827 304.355 284.298 301.809 284.298 298.964C284.298 296.118 282.827 293.572 280.362 292.149L223.527 259.334C218.738 256.568 213.369 255.185 207.999 255.186C202.629 255.186 197.257 256.569 192.469 259.334Z" fill="url(#paint3_linear_1250_1227)"/>
<path d="M126.705 440.993C125.675 440.398 124.446 439.39 124.446 437.974C124.446 436.509 125.782 434.861 128.032 433.562L347.567 304.939C350.24 303.397 353.747 302.602 357.044 302.602C359.703 302.602 362.228 303.12 364.065 304.179L686.124 490.122C687.153 490.717 688.382 491.725 688.382 493.139C688.382 494.606 687.047 496.252 684.797 497.553L465.26 626.175C460.435 628.964 452.878 629.312 448.767 626.934H448.766L126.705 440.993ZM345.739 301.797L126.202 430.419C122.775 432.397 120.809 435.153 120.809 437.976C120.809 440.434 122.257 442.625 124.888 444.141L446.949 630.082H446.947C449.365 631.479 452.527 632.164 455.827 632.164C459.733 632.164 463.825 631.202 467.091 629.318L686.625 500.695C690.053 498.716 692.019 495.963 692.019 493.139C692.019 490.682 690.571 488.491 687.94 486.974L365.881 301.031C363.465 299.636 360.3 298.95 357.001 298.95C353.095 298.95 349.002 299.911 345.739 301.797Z" fill="url(#paint4_linear_1250_1227)"/>
<g opacity="0.5">
<path d="M447.894 597.977L175.469 440.692C171.498 438.4 171.996 434.395 176.581 431.748L351.425 330.801C356.011 328.154 362.946 327.867 366.917 330.159L639.342 487.444C643.313 489.736 642.815 493.741 638.23 496.388L463.386 597.335C458.801 599.982 451.864 600.269 447.894 597.977Z" fill="#01012F"/>
</g>
<path d="M430.286 56.0945L367.822 258.906C366.275 263.935 368.541 270.047 372.885 272.554L649.101 432.026C654.198 434.275 657.948 431.775 659.765 427.461L722.231 224.648C723.777 219.618 721.511 213.509 717.167 211.001L440.953 51.5281C434.948 49.6497 432.698 50.2745 430.286 56.0945Z" fill="url(#paint5_linear_1250_1227)"/>
<path d="M350.825 282.847L174.55 384.618L168.673 382.374L170.323 390.62L170.331 390.617C170.55 391.857 171.419 393.017 172.978 393.917L448.329 552.892C452.341 555.209 459.352 554.918 463.986 552.243L640.708 450.212C642.889 448.954 644.142 447.391 644.453 445.847L644.464 445.859L646.149 437.834L639.213 439.599L639.311 439.716L366.482 282.198C364.664 281.148 362.23 280.634 359.681 280.633C356.604 280.633 353.359 281.384 350.825 282.847Z" fill="url(#paint6_linear_1250_1227)"/>
<path d="M350.422 273.674L172.444 376.43C167.777 379.124 167.269 383.2 171.312 385.534L448.617 545.637C452.66 547.97 459.72 547.678 464.387 544.983L642.365 442.228C647.033 439.534 647.539 435.457 643.497 433.123L366.191 273.021C364.359 271.963 361.909 271.445 359.341 271.445C356.242 271.445 352.974 272.2 350.422 273.674Z" fill="url(#paint7_linear_1250_1227)"/>
<path d="M642.365 440.068L464.388 542.823C459.721 545.517 452.661 545.811 448.619 543.477L171.313 383.374C169.935 382.579 169.127 381.574 168.791 380.498C168.256 382.357 169.039 384.22 171.313 385.533L448.619 545.636C452.661 547.97 459.721 547.677 464.388 544.983L642.365 442.228C645.443 440.451 646.67 438.08 646.02 435.999C645.602 437.444 644.408 438.888 642.365 440.068Z" fill="white"/>
<g opacity="0.7">
<path d="M303.585 359.551L294.222 354.145C293.471 353.711 293.565 352.953 294.433 352.452L305.484 346.072C306.352 345.571 307.665 345.516 308.417 345.951L317.778 351.356C318.53 351.791 318.436 352.549 317.568 353.05L306.517 359.429C305.649 359.93 304.337 359.984 303.585 359.551Z" fill="#05033D"/>
<path d="M318.042 367.899L308.68 362.493C307.929 362.059 308.022 361.301 308.89 360.8L319.941 354.42C320.809 353.919 322.122 353.864 322.874 354.299L332.236 359.704C332.988 360.139 332.893 360.896 332.025 361.398L320.975 367.777C320.107 368.278 318.794 368.332 318.042 367.899Z" fill="#05033D"/>
<path d="M332.501 376.246L323.138 370.84C322.386 370.407 322.481 369.648 323.349 369.147L334.399 362.767C335.267 362.266 336.581 362.211 337.333 362.646L346.693 368.051C347.445 368.486 347.351 369.244 346.483 369.745L335.433 376.124C334.565 376.625 333.253 376.679 332.501 376.246Z" fill="#05033D"/>
<path d="M352.497 369.353L343.134 363.948C342.382 363.513 342.477 362.755 343.345 362.254L352.621 356.898C353.489 356.397 354.801 356.343 355.553 356.777L364.916 362.183C365.667 362.617 365.573 363.375 364.705 363.877L355.429 369.231C354.561 369.732 353.249 369.787 352.497 369.353Z" fill="#05033D"/>
<path d="M366.955 377.7L357.593 372.295C356.841 371.861 356.935 371.102 357.803 370.601L367.079 365.245C367.947 364.745 369.26 364.69 370.012 365.124L379.374 370.53C380.125 370.964 380.031 371.722 379.164 372.224L369.887 377.578C369.019 378.079 367.707 378.134 366.955 377.7Z" fill="#05033D"/>
<path d="M381.413 386.047L372.051 380.642C371.299 380.208 371.393 379.45 372.261 378.949L381.537 373.593C382.405 373.092 383.718 373.038 384.47 373.471L393.833 378.877C394.584 379.311 394.489 380.069 393.621 380.57L384.345 385.926C383.477 386.427 382.165 386.481 381.413 386.047Z" fill="#05033D"/>
<path d="M395.871 394.395L386.509 388.989C385.757 388.555 385.851 387.797 386.719 387.296L395.996 381.94C396.864 381.439 398.177 381.385 398.929 381.819L408.291 387.224C409.042 387.658 408.948 388.416 408.08 388.917L398.804 394.273C397.936 394.774 396.623 394.828 395.871 394.395Z" fill="#05033D"/>
<path d="M410.329 402.742L400.967 397.336C400.215 396.903 400.309 396.144 401.177 395.643L410.453 390.287C411.321 389.787 412.634 389.732 413.386 390.166L422.749 395.571C423.5 396.005 423.405 396.763 422.538 397.264L413.261 402.62C412.393 403.121 411.081 403.175 410.329 402.742Z" fill="#05033D"/>
<path d="M424.787 411.09L415.425 405.684C414.673 405.251 414.767 404.492 415.635 403.991L424.912 398.635C425.78 398.135 427.093 398.08 427.845 398.514L437.207 403.919C437.958 404.353 437.864 405.111 436.996 405.612L427.72 410.968C426.852 411.469 425.539 411.523 424.787 411.09Z" fill="#05033D"/>
<path d="M439.245 419.437L429.883 414.031C429.131 413.598 429.225 412.839 430.093 412.339L439.369 406.983C440.237 406.482 441.55 406.427 442.302 406.861L451.665 412.267C452.416 412.7 452.321 413.459 451.453 413.959L442.177 419.315C441.309 419.816 439.997 419.871 439.245 419.437Z" fill="#05033D"/>
<path d="M453.703 427.784L444.341 422.379C443.589 421.945 443.684 421.187 444.551 420.686L453.828 415.33C454.696 414.829 456.009 414.775 456.761 415.208L466.123 420.614C466.874 421.047 466.78 421.806 465.913 422.307L456.636 427.663C455.768 428.163 454.455 428.218 453.703 427.784Z" fill="#05033D"/>
<path d="M468.161 436.131L458.799 430.726C458.047 430.292 458.141 429.534 459.009 429.033L468.285 423.677C469.153 423.176 470.466 423.122 471.218 423.555L480.581 428.961C481.332 429.395 481.237 430.153 480.369 430.654L471.093 436.01C470.225 436.511 468.913 436.565 468.161 436.131Z" fill="#05033D"/>
<path d="M482.62 444.48L473.257 439.074C472.506 438.64 472.6 437.882 473.468 437.381L482.745 432.025C483.613 431.524 484.925 431.47 485.677 431.904L495.04 437.309C495.791 437.743 495.697 438.501 494.829 439.002L485.553 444.358C484.685 444.859 483.372 444.913 482.62 444.48Z" fill="#05033D"/>
<path d="M373.8 365.4L364.437 359.996C363.686 359.562 363.781 358.803 364.648 358.302L373.925 352.946C374.793 352.445 376.105 352.391 376.857 352.824L386.22 358.231C386.971 358.664 386.877 359.423 386.009 359.924L376.733 365.279C375.865 365.78 374.552 365.835 373.8 365.4Z" fill="#05033D"/>
<path d="M359.126 356.928L349.764 351.523C349.012 351.089 349.106 350.331 349.974 349.83L359.25 344.474C360.118 343.973 361.431 343.919 362.183 344.352L371.545 349.759C372.297 350.192 372.202 350.951 371.334 351.452L362.058 356.807C361.19 357.307 359.878 357.363 359.126 356.928Z" fill="#05033D"/>
<path d="M344.428 348.442L324.264 336.801C323.513 336.368 323.606 335.609 324.474 335.109L333.751 329.753C334.619 329.252 335.932 329.197 336.684 329.631L356.848 341.273C357.599 341.706 357.505 342.465 356.637 342.966L347.361 348.321C346.493 348.821 345.18 348.877 344.428 348.442Z" fill="#05033D"/>
<path d="M354.701 338.123L338.338 328.676C337.586 328.241 337.681 327.484 338.549 326.982L347.825 321.626C348.693 321.125 350.006 321.071 350.757 321.505L367.121 330.953C367.873 331.386 367.778 332.145 366.911 332.646L357.634 338.001C356.766 338.502 355.453 338.557 354.701 338.123Z" fill="#05033D"/>
<path d="M388.257 373.748L378.895 368.343C378.144 367.908 378.237 367.15 379.105 366.649L388.382 361.293C389.25 360.792 390.563 360.738 391.315 361.172L400.677 366.578C401.429 367.012 401.334 367.77 400.466 368.272L391.19 373.626C390.322 374.127 389.009 374.182 388.257 373.748Z" fill="#05033D"/>
<path d="M402.716 382.095L393.353 376.691C392.602 376.257 392.696 375.498 393.564 374.997L402.841 369.641C403.709 369.141 405.021 369.086 405.773 369.52L415.136 374.925C415.887 375.358 415.793 376.117 414.925 376.619L405.649 381.974C404.781 382.475 403.468 382.529 402.716 382.095Z" fill="#05033D"/>
<path d="M417.173 390.443L407.811 385.037C407.06 384.604 407.154 383.845 408.021 383.345L417.298 377.989C418.166 377.488 419.479 377.433 420.231 377.867L429.593 383.273C430.345 383.706 430.25 384.465 429.383 384.966L420.106 390.321C419.238 390.822 417.925 390.877 417.173 390.443Z" fill="#05033D"/>
<path d="M431.633 398.79L422.27 393.385C421.518 392.951 421.613 392.193 422.481 391.692L431.757 386.336C432.625 385.835 433.937 385.781 434.689 386.215L444.052 391.62C444.803 392.053 444.709 392.813 443.841 393.314L434.565 398.669C433.697 399.17 432.385 399.225 431.633 398.79Z" fill="#05033D"/>
<path d="M446.09 407.137L436.728 401.733C435.977 401.299 436.07 400.54 436.938 400.039L446.215 394.683C447.083 394.182 448.396 394.128 449.148 394.562L458.51 399.967C459.261 400.4 459.167 401.16 458.299 401.661L449.023 407.016C448.155 407.517 446.842 407.572 446.09 407.137Z" fill="#05033D"/>
<path d="M460.548 415.484L451.185 410.08C450.434 409.646 450.528 408.887 451.396 408.386L460.672 403.03C461.54 402.529 462.853 402.476 463.605 402.909L472.968 408.314C473.719 408.748 473.625 409.507 472.757 410.008L463.48 415.364C462.612 415.864 461.3 415.919 460.548 415.484Z" fill="#05033D"/>
<path d="M475.006 423.832L465.644 418.428C464.893 417.993 464.986 417.234 465.854 416.733L475.131 411.377C475.999 410.876 477.312 410.823 478.064 411.256L487.426 416.661C488.177 417.095 488.083 417.854 487.215 418.356L477.939 423.711C477.071 424.212 475.758 424.266 475.006 423.832Z" fill="#05033D"/>
<path d="M489.465 432.18L480.102 426.774C479.351 426.341 479.445 425.582 480.313 425.081L489.589 419.725C490.457 419.225 491.77 419.17 492.522 419.604L501.885 425.009C502.636 425.443 502.541 426.201 501.673 426.702L492.397 432.058C491.529 432.559 490.217 432.613 489.465 432.18Z" fill="#05033D"/>
<path d="M503.923 440.527L494.561 435.122C493.809 434.688 493.903 433.93 494.771 433.429L504.047 428.073C504.915 427.572 506.228 427.518 506.98 427.951L516.342 433.357C517.093 433.791 516.999 434.549 516.131 435.05L506.855 440.406C505.987 440.907 504.675 440.961 503.923 440.527Z" fill="#05033D"/>
<path d="M529.626 455.367L509.198 443.574C508.447 443.14 508.541 442.381 509.409 441.88L518.685 436.524C519.553 436.023 520.866 435.968 521.618 436.402L542.046 448.196C542.797 448.63 542.703 449.389 541.835 449.891L532.559 455.246C531.691 455.747 530.378 455.801 529.626 455.367Z" fill="#05033D"/>
<path d="M557.773 439.115L540.532 429.161C539.78 428.727 539.874 427.969 540.742 427.467L550.019 422.112C550.887 421.611 552.2 421.557 552.952 421.991L570.193 431.945C570.945 432.379 570.85 433.137 569.982 433.638L560.706 438.994C559.838 439.495 558.525 439.549 557.773 439.115Z" fill="#05033D"/>
<path d="M413.577 372.115L404.214 366.709C403.463 366.276 403.557 365.517 404.425 365.016L413.701 359.66C414.569 359.16 415.882 359.105 416.634 359.539L425.997 364.944C426.748 365.378 426.653 366.136 425.786 366.637L416.509 371.993C415.641 372.494 414.329 372.548 413.577 372.115Z" fill="#05033D"/>
<path d="M398.759 363.56L389.397 358.155C388.645 357.72 388.74 356.962 389.607 356.461L398.884 351.105C399.752 350.604 401.065 350.55 401.817 350.984L411.179 356.39C411.93 356.824 411.836 357.582 410.969 358.084L401.692 363.438C400.824 363.939 399.511 363.994 398.759 363.56Z" fill="#05033D"/>
<path d="M383.941 355.005L374.579 349.6C373.828 349.166 373.922 348.408 374.789 347.907L384.066 342.551C384.934 342.05 386.247 341.996 386.999 342.429L396.361 347.835C397.113 348.269 397.019 349.027 396.151 349.528L386.874 354.884C386.006 355.385 384.693 355.439 383.941 355.005Z" fill="#05033D"/>
<path d="M369.124 346.449L359.761 341.044C359.01 340.611 359.104 339.852 359.972 339.351L369.249 333.995C370.117 333.494 371.429 333.44 372.181 333.873L381.544 339.28C382.295 339.713 382.201 340.472 381.333 340.973L372.057 346.328C371.189 346.828 369.876 346.884 369.124 346.449Z" fill="#05033D"/>
<path d="M428.036 380.462L418.673 375.056C417.921 374.623 418.016 373.864 418.884 373.364L428.16 368.008C429.028 367.507 430.341 367.452 431.093 367.886L440.455 373.292C441.206 373.725 441.112 374.484 440.244 374.984L430.968 380.34C430.1 380.841 428.788 380.896 428.036 380.462Z" fill="#05033D"/>
<path d="M442.493 388.81L433.131 383.405C432.38 382.971 432.473 382.213 433.341 381.712L442.618 376.356C443.486 375.855 444.799 375.801 445.551 376.234L454.913 381.64C455.665 382.073 455.57 382.832 454.702 383.333L445.426 388.689C444.558 389.189 443.245 389.244 442.493 388.81Z" fill="#05033D"/>
<path d="M456.951 397.157L447.589 391.752C446.837 391.318 446.932 390.56 447.799 390.059L457.076 384.703C457.944 384.202 459.257 384.148 460.009 384.581L469.371 389.987C470.122 390.42 470.028 391.179 469.161 391.68L459.884 397.036C459.016 397.536 457.703 397.591 456.951 397.157Z" fill="#05033D"/>
<path d="M471.409 405.504L462.047 400.099C461.296 399.665 461.389 398.907 462.257 398.406L471.534 393.05C472.402 392.549 473.715 392.495 474.467 392.928L483.829 398.334C484.581 398.768 484.486 399.526 483.618 400.027L474.342 405.383C473.474 405.884 472.161 405.938 471.409 405.504Z" fill="#05033D"/>
<path d="M485.868 413.852L476.505 408.446C475.754 408.012 475.848 407.254 476.716 406.753L485.993 401.397C486.861 400.896 488.173 400.842 488.925 401.276L498.288 406.681C499.039 407.115 498.945 407.873 498.077 408.374L488.801 413.73C487.933 414.231 486.62 414.285 485.868 413.852Z" fill="#05033D"/>
<path d="M500.325 422.2L490.963 416.794C490.212 416.361 490.306 415.602 491.173 415.101L500.45 409.745C501.318 409.245 502.631 409.19 503.383 409.624L512.745 415.029C513.496 415.463 513.402 416.221 512.535 416.722L503.258 422.078C502.39 422.579 501.077 422.633 500.325 422.2Z" fill="#05033D"/>
<path d="M514.784 430.547L505.421 425.141C504.67 424.708 504.764 423.949 505.632 423.449L514.909 418.093C515.777 417.592 517.089 417.537 517.841 417.971L527.204 423.377C527.955 423.81 527.861 424.569 526.993 425.069L517.717 430.425C516.849 430.926 515.536 430.981 514.784 430.547Z" fill="#05033D"/>
<path d="M529.242 438.894L519.88 433.488C519.129 433.055 519.222 432.296 520.09 431.796L529.367 426.44C530.235 425.939 531.548 425.884 532.3 426.318L541.662 431.724C542.413 432.157 542.319 432.916 541.451 433.416L532.175 438.772C531.307 439.273 529.994 439.328 529.242 438.894Z" fill="#05033D"/>
<path d="M543.7 447.241L534.337 441.836C533.586 441.402 533.681 440.644 534.548 440.143L543.825 434.787C544.693 434.286 546.005 434.232 546.757 434.665L556.12 440.071C556.871 440.504 556.777 441.263 555.909 441.764L546.633 447.12C545.765 447.62 544.452 447.675 543.7 447.241Z" fill="#05033D"/>
<path d="M405.964 351.468L396.601 346.063C395.85 345.629 395.944 344.871 396.812 344.37L406.089 339.014C406.957 338.513 408.269 338.459 409.021 338.892L418.384 344.298C419.135 344.732 419.041 345.49 418.173 345.991L408.897 351.347C408.029 351.848 406.716 351.902 405.964 351.468Z" fill="#05033D"/>
<path d="M391.577 343.162L382.215 337.757C381.464 337.323 381.557 336.565 382.425 336.064L391.702 330.708C392.57 330.207 393.883 330.153 394.635 330.586L403.997 335.992C404.749 336.425 404.654 337.184 403.786 337.685L394.51 343.041C393.642 343.541 392.329 343.596 391.577 343.162Z" fill="#05033D"/>
<path d="M377.192 334.856L367.829 329.451C367.078 329.016 367.172 328.258 368.04 327.757L377.317 322.401C378.185 321.9 379.497 321.846 380.249 322.28L389.612 327.686C390.363 328.12 390.269 328.877 389.401 329.378L380.125 334.734C379.257 335.235 377.944 335.29 377.192 334.856Z" fill="#05033D"/>
<path d="M362.806 326.55L353.444 321.145C352.692 320.711 352.786 319.952 353.654 319.451L362.93 314.095C363.798 313.595 365.111 313.54 365.863 313.974L375.225 319.38C375.977 319.814 375.882 320.572 375.014 321.074L365.738 326.428C364.87 326.929 363.558 326.984 362.806 326.55Z" fill="#05033D"/>
<path d="M377.598 318.01L368.236 312.605C367.485 312.171 367.578 311.412 368.446 310.912L371.513 309.141C372.381 308.64 373.694 308.585 374.446 309.02L383.808 314.424C384.56 314.859 384.465 315.617 383.597 316.118L380.531 317.888C379.663 318.389 378.35 318.444 377.598 318.01Z" fill="#05033D"/>
<path d="M396.373 328.848L387.01 323.443C386.259 323.009 386.353 322.251 387.221 321.75L390.288 319.979C391.156 319.478 392.469 319.423 393.221 319.858L402.582 325.263C403.334 325.697 403.24 326.455 402.372 326.956L399.305 328.727C398.437 329.227 397.125 329.283 396.373 328.848Z" fill="#05033D"/>
<path d="M410.699 337.12L401.337 331.714C400.585 331.28 400.679 330.522 401.547 330.021L404.614 328.251C405.482 327.749 406.795 327.695 407.547 328.129L416.909 333.534C417.661 333.968 417.566 334.726 416.698 335.228L413.632 336.998C412.764 337.499 411.451 337.553 410.699 337.12Z" fill="#05033D"/>
<path d="M425.025 345.391L415.663 339.985C414.912 339.551 415.005 338.793 415.873 338.292L418.941 336.522C419.809 336.02 421.121 335.966 421.873 336.4L431.235 341.805C431.987 342.239 431.893 342.998 431.025 343.499L427.958 345.269C427.09 345.77 425.777 345.825 425.025 345.391Z" fill="#05033D"/>
<path d="M439.351 353.662L429.989 348.257C429.237 347.823 429.331 347.065 430.199 346.564L433.266 344.793C434.134 344.292 435.447 344.237 436.198 344.672L445.561 350.077C446.313 350.511 446.218 351.269 445.35 351.77L442.284 353.541C441.416 354.041 440.103 354.096 439.351 353.662Z" fill="#05033D"/>
<path d="M519.333 399.839L509.97 394.434C509.219 394 509.313 393.242 510.181 392.741L513.247 390.971C514.115 390.469 515.429 390.415 516.18 390.85L525.542 396.254C526.294 396.688 526.2 397.446 525.332 397.947L522.265 399.718C521.397 400.219 520.085 400.273 519.333 399.839Z" fill="#05033D"/>
<path d="M533.658 408.111L524.296 402.706C523.545 402.272 523.639 401.513 524.506 401.012L527.573 399.242C528.441 398.74 529.754 398.686 530.506 399.12L539.868 404.525C540.62 404.96 540.525 405.718 539.657 406.219L536.591 407.989C535.723 408.49 534.41 408.545 533.658 408.111Z" fill="#05033D"/>
<path d="M547.985 416.382L538.622 410.976C537.871 410.543 537.965 409.784 538.833 409.283L541.9 407.513C542.768 407.011 544.081 406.958 544.833 407.392L554.194 412.796C554.946 413.231 554.852 413.988 553.984 414.49L550.917 416.26C550.049 416.761 548.737 416.815 547.985 416.382Z" fill="#05033D"/>
<path d="M562.311 424.653L552.949 419.249C552.197 418.814 552.291 418.056 553.159 417.555L556.226 415.785C557.094 415.283 558.407 415.229 559.159 415.663L568.521 421.068C569.273 421.502 569.178 422.261 568.31 422.761L565.244 424.532C564.376 425.033 563.063 425.088 562.311 424.653Z" fill="#05033D"/>
<path d="M420.422 359.815L411.06 354.41C410.309 353.976 410.403 353.218 411.27 352.717L420.547 347.361C421.415 346.86 422.728 346.806 423.48 347.239L432.842 352.645C433.593 353.079 433.499 353.837 432.632 354.338L423.355 359.694C422.487 360.195 421.174 360.249 420.422 359.815Z" fill="#05033D"/>
<path d="M434.88 368.163L425.517 362.757C424.766 362.323 424.86 361.565 425.728 361.064L435.005 355.708C435.873 355.207 437.185 355.153 437.937 355.587L447.3 360.992C448.051 361.426 447.957 362.184 447.089 362.685L437.813 368.041C436.945 368.542 435.632 368.596 434.88 368.163Z" fill="#05033D"/>
<path d="M449.338 376.51L439.976 371.104C439.225 370.671 439.318 369.912 440.186 369.411L449.463 364.055C450.331 363.555 451.644 363.5 452.396 363.934L461.758 369.339C462.509 369.773 462.415 370.531 461.547 371.032L452.271 376.388C451.403 376.889 450.09 376.943 449.338 376.51Z" fill="#05033D"/>
<path d="M463.796 384.858L454.433 379.452C453.682 379.019 453.777 378.26 454.644 377.76L463.921 372.404C464.789 371.903 466.101 371.848 466.853 372.282L476.216 377.688C476.967 378.121 476.873 378.88 476.005 379.38L466.729 384.736C465.861 385.237 464.548 385.292 463.796 384.858Z" fill="#05033D"/>
<path d="M478.254 393.205L468.892 387.8C468.141 387.366 468.234 386.608 469.102 386.107L478.379 380.751C479.247 380.25 480.56 380.196 481.312 380.629L490.674 386.035C491.425 386.468 491.331 387.227 490.463 387.728L481.187 393.084C480.319 393.584 479.006 393.639 478.254 393.205Z" fill="#05033D"/>
<path d="M492.713 401.552L483.35 396.147C482.598 395.713 482.693 394.955 483.561 394.454L492.837 389.098C493.705 388.597 495.017 388.543 495.769 388.976L505.132 394.382C505.883 394.815 505.789 395.574 504.921 396.075L495.645 401.431C494.777 401.931 493.465 401.986 492.713 401.552Z" fill="#05033D"/>
<path d="M507.17 409.899L497.808 404.494C497.057 404.06 497.151 403.302 498.018 402.801L507.295 397.445C508.163 396.944 509.476 396.89 510.228 397.323L519.59 402.729C520.341 403.163 520.248 403.921 519.38 404.422L510.103 409.778C509.235 410.279 507.922 410.333 507.17 409.899Z" fill="#05033D"/>
<path d="M521.629 418.248L512.267 412.842C511.515 412.408 511.609 411.65 512.477 411.149L521.753 405.793C522.621 405.292 523.934 405.238 524.686 405.672L534.049 411.077C534.8 411.511 534.705 412.269 533.837 412.77L524.561 418.126C523.693 418.627 522.381 418.681 521.629 418.248Z" fill="#05033D"/>
<path d="M536.087 426.595L526.725 421.189C525.973 420.756 526.067 419.997 526.935 419.496L536.212 414.14C537.08 413.64 538.393 413.585 539.145 414.019L548.507 419.424C549.258 419.858 549.164 420.616 548.296 421.117L539.02 426.473C538.152 426.974 536.839 427.028 536.087 426.595Z" fill="#05033D"/>
<path d="M337.762 360.846L310.189 344.927C309.437 344.493 309.532 343.735 310.4 343.234L319.677 337.878C320.545 337.377 321.857 337.322 322.609 337.756L350.182 353.676C350.933 354.109 350.839 354.868 349.971 355.369L340.695 360.724C339.827 361.225 338.514 361.28 337.762 360.846Z" fill="#05033D"/>
<path d="M515.384 463.396L487.811 447.477C487.059 447.043 487.153 446.285 488.021 445.784L497.298 440.428C498.166 439.926 499.479 439.872 500.231 440.306L527.804 456.226C528.555 456.66 528.46 457.418 527.593 457.919L518.316 463.275C517.448 463.776 516.136 463.829 515.384 463.396Z" fill="#05033D"/>
<path d="M457.564 448.451L448.201 443.046C447.45 442.612 447.545 441.855 448.412 441.354L459.463 434.973C460.331 434.471 461.644 434.417 462.396 434.851L471.757 440.257C472.509 440.691 472.415 441.449 471.547 441.951L460.497 448.331C459.629 448.831 458.316 448.885 457.564 448.451Z" fill="#05033D"/>
<path d="M352.569 387.833L337.596 379.188C336.844 378.755 336.938 377.996 337.806 377.496L348.857 371.116C349.725 370.614 351.038 370.56 351.789 370.994L366.762 379.638C367.514 380.072 367.42 380.83 366.552 381.332L355.501 387.712C354.633 388.212 353.321 388.267 352.569 387.833Z" fill="#05033D"/>
<path d="M443.633 440.409L428.661 431.765C427.909 431.331 428.003 430.573 428.871 430.072L439.922 423.692C440.79 423.19 442.103 423.136 442.854 423.57L457.827 432.214C458.579 432.649 458.485 433.406 457.617 433.908L446.566 440.288C445.698 440.789 444.385 440.843 443.633 440.409Z" fill="#05033D"/>
<path d="M373.429 399.876L358.456 391.231C357.704 390.798 357.798 390.039 358.666 389.539L369.717 383.158C370.585 382.657 371.898 382.603 372.65 383.037L387.622 391.681C388.374 392.115 388.28 392.873 387.412 393.375L376.361 399.755C375.493 400.255 374.181 400.31 373.429 399.876Z" fill="#05033D"/>
<path d="M372.751 383.095L437.849 420.68C438.657 421.146 438.657 421.902 437.849 422.368L426.58 428.874C425.772 429.34 424.462 429.34 423.655 428.874L358.557 391.291L372.751 383.095Z" fill="#05033D"/>
<path d="M497.973 463.586L508.401 469.607C509.017 469.963 508.939 470.584 508.228 470.995L503.707 473.604C502.996 474.016 501.92 474.06 501.303 473.704L490.876 467.684C490.26 467.328 490.337 466.706 491.049 466.296L495.569 463.686C496.281 463.275 497.357 463.23 497.973 463.586Z" fill="#05033D"/>
<path d="M483.394 455.17L493.822 461.191C494.438 461.547 494.361 462.168 493.649 462.579L489.129 465.188C488.417 465.6 487.341 465.644 486.725 465.288L476.297 459.268C475.681 458.912 475.758 458.29 476.47 457.88L480.99 455.27C481.702 454.859 482.778 454.814 483.394 455.17Z" fill="#05033D"/>
<path d="M468.936 446.823L479.364 452.844C479.98 453.2 479.903 453.821 479.191 454.232L474.67 456.841C473.959 457.252 472.884 457.297 472.268 456.941L461.839 450.92C461.223 450.564 461.3 449.943 462.012 449.532L466.532 446.923C467.244 446.512 468.32 446.467 468.936 446.823Z" fill="#05033D"/>
<path d="M491.378 450.561L501.807 456.581C502.423 456.937 502.345 457.56 501.634 457.97L497.113 460.579C496.402 460.99 495.326 461.034 494.709 460.679L484.281 454.658C483.665 454.302 483.742 453.681 484.453 453.271L488.974 450.661C489.685 450.249 490.762 450.205 491.378 450.561Z" fill="#05033D"/>
</g>
<path d="M529.626 455.367L509.198 443.574C508.447 443.14 508.541 442.381 509.409 441.88L518.685 436.524C519.553 436.023 520.866 435.968 521.618 436.402L542.046 448.196C542.797 448.63 542.703 449.389 541.835 449.891L532.559 455.246C531.691 455.747 530.378 455.801 529.626 455.367Z" fill="#EB7D42" fill-opacity="0.01"/>
<path d="M475.006 423.832L465.644 418.428C464.893 417.993 464.986 417.234 465.854 416.733L475.131 411.377C475.999 410.876 477.312 410.823 478.064 411.256L487.426 416.661C488.177 417.095 488.083 417.854 487.215 418.356L477.939 423.711C477.071 424.212 475.758 424.266 475.006 423.832Z" fill="#EB7D42" fill-opacity="0.01"/>
<path d="M398.759 363.56L389.397 358.155C388.645 357.72 388.74 356.962 389.607 356.461L398.884 351.105C399.752 350.604 401.065 350.55 401.817 350.984L411.179 356.39C411.93 356.824 411.836 357.582 410.969 358.084L401.692 363.438C400.824 363.939 399.511 363.994 398.759 363.56Z" fill="#EB7D42" fill-opacity="0.01"/>
<path d="M371.251 382.221L437.849 420.68C438.657 421.146 438.657 421.902 437.849 422.369L426.58 428.874C425.772 429.341 424.462 429.341 423.655 428.874L357.057 390.416L371.251 382.221Z" fill="#EB7D42" fill-opacity="0.01"/>
<path d="M424.829 57.4912L363.116 260.554C361.569 265.583 363.835 271.694 368.179 274.202L644.393 433.674C648.737 436.181 653.513 434.137 655.059 429.107L717.524 226.295C719.07 221.266 717.304 214.28 712.961 211.774L436.746 52.4264C431.323 48.9 425.928 53.92 424.829 57.4912Z" fill="url(#paint8_linear_1250_1227)"/>
<path d="M641.789 426.571L373.876 271.762C369.719 269.363 367.549 263.516 369.03 258.702L428.749 64.8159C430.23 60.0031 434.8 58.0463 438.957 60.4463L706.869 215.254C711.026 217.654 713.195 223.501 711.715 228.314L651.996 422.201C650.515 427.014 645.945 428.971 641.789 426.571Z" fill="url(#paint9_linear_1250_1227)"/>
<g opacity="0.4">
<path d="M374.149 479.278C371.65 479.278 369.257 478.759 367.429 477.703V477.705L294.765 435.753C292.841 434.64 291.781 433.052 291.781 431.277C291.779 429.217 293.241 427.193 295.788 425.722L333.19 404.126C337.761 401.49 344.469 401.231 348.468 403.537L421.129 445.489C423.055 446.601 424.114 448.191 424.117 449.966C424.117 452.025 422.656 454.05 420.109 455.52L382.705 477.117C380.225 478.547 377.114 479.278 374.149 479.278ZM341.781 404.087C339.154 404.087 336.365 404.719 334.24 405.945L296.837 427.54C294.957 428.625 293.877 429.988 293.877 431.277C293.877 432.549 294.931 433.425 295.816 433.935L368.48 475.888C371.776 477.788 377.808 477.521 381.655 475.297L419.06 453.703C420.94 452.617 422.018 451.257 422.018 449.966C422.018 448.693 420.965 447.817 420.08 447.308L347.417 405.357C345.942 404.503 343.915 404.087 341.781 404.087Z" fill="#05033D"/>
</g>
<g opacity="0.5">
<path d="M627.395 367.319L446.032 262.609C443.18 260.962 441.692 256.95 442.707 253.648L483.721 120.482C484.737 117.179 487.873 115.837 490.725 117.483L672.089 222.194C674.94 223.84 676.429 227.852 675.413 231.154L634.398 364.321C633.382 367.623 630.247 368.966 627.395 367.319Z" fill="#05033D"/>
</g>
<path d="M459.217 123.696L418.203 256.863C417.187 260.165 418.675 264.177 421.527 265.824L602.89 370.533C605.741 372.18 608.877 370.838 609.893 367.536L650.908 234.369C651.923 231.066 650.435 227.055 647.583 225.408L466.22 120.697C465.393 120.221 464.543 119.994 463.727 119.994C461.729 119.994 459.938 121.351 459.217 123.696Z" fill="url(#paint10_linear_1250_1227)"/>
<g opacity="0.5">
<path d="M602.89 370.534L421.527 265.823C418.675 264.177 417.187 260.165 418.202 256.862L459.218 123.696C460.233 120.394 463.369 119.051 466.22 120.698L647.583 225.408C650.435 227.054 651.924 231.066 650.908 234.369L609.894 367.535C608.878 370.838 605.742 372.18 602.89 370.534Z" fill="#05033D"/>
</g>
<mask id="mask0_1250_1227" style="mask-type:alpha" maskUnits="userSpaceOnUse" x="456" y="115" width="197" height="263">
<path d="M606.197 374.65C606.197 374.65 645.89 249.072 648.947 237.65C651.322 228.775 650.072 227.4 638.947 221.4C619.624 210.978 458.947 117.65 458.947 117.65" stroke="#FF0A0A" stroke-width="5" stroke-linecap="round"/>
</mask>
<g mask="url(#mask0_1250_1227)">
<path d="M647.583 225.409L466.22 120.698C464.433 119.666 462.535 119.81 461.117 120.873C461.972 120.847 462.864 121.041 463.735 121.543L645.099 226.254C647.95 227.9 649.439 231.912 648.423 235.214L607.409 368.381C607.029 369.614 606.353 370.572 605.509 371.205C607.454 371.147 609.187 369.83 609.894 367.536L650.907 234.37C651.923 231.067 650.435 227.055 647.583 225.409Z" fill="white"/>
</g>
<path d="M487.782 240.481L476.569 234.008C475.529 233.407 474.972 231.964 475.324 230.784C475.676 229.604 476.805 229.133 477.845 229.734L489.057 236.208C490.097 236.808 490.655 238.252 490.303 239.432C489.951 240.612 488.822 241.082 487.782 240.481Z" fill="white"/>
<path d="M511.591 254.226L495.058 244.681C494.017 244.081 493.459 242.637 493.811 241.457C494.163 240.277 495.292 239.808 496.332 240.409L512.866 249.954C513.906 250.554 514.463 251.998 514.111 253.178C513.759 254.358 512.631 254.827 511.591 254.226Z" fill="white"/>
<path d="M497.884 204.33L476.483 191.974C475.442 191.373 474.884 189.93 475.236 188.75C475.588 187.57 476.717 187.1 477.757 187.7L499.159 200.056C500.199 200.657 500.756 202.101 500.404 203.281C500.052 204.461 498.924 204.931 497.884 204.33Z" fill="white"/>
<path d="M478.145 213.925L471.141 209.881C470.1 209.28 469.542 207.837 469.894 206.657C470.246 205.477 471.375 205.006 472.415 205.607L479.42 209.651C480.46 210.252 481.017 211.696 480.665 212.876C480.313 214.056 479.185 214.525 478.145 213.925Z" fill="white"/>
<path d="M514.172 276.709L495.464 265.909C494.424 265.308 493.865 263.865 494.217 262.685C494.569 261.504 495.698 261.034 496.738 261.635L515.447 272.435C516.487 273.036 517.045 274.481 516.693 275.661C516.341 276.841 515.212 277.309 514.172 276.709Z" fill="white"/>
<path d="M470.295 230.384L465.798 227.788C464.758 227.188 464.201 225.744 464.553 224.564C464.905 223.384 466.033 222.915 467.074 223.515L471.57 226.111C472.61 226.711 473.167 228.155 472.815 229.335C472.463 230.515 471.335 230.985 470.295 230.384Z" fill="white"/>
<path d="M466.04 248.919L460.456 245.695C459.416 245.095 458.858 243.651 459.21 242.471C459.562 241.291 460.691 240.821 461.731 241.422L467.315 244.645C468.355 245.246 468.912 246.69 468.56 247.87C468.208 249.05 467.08 249.52 466.04 248.919Z" fill="white"/>
<path d="M487.761 261.46L473.041 252.961C472.001 252.361 471.443 250.917 471.795 249.737C472.147 248.557 473.276 248.087 474.316 248.688L489.037 257.186C490.077 257.787 490.633 259.231 490.281 260.411C489.929 261.591 488.801 262.061 487.761 261.46Z" fill="white"/>
<path d="M468.369 260.76L457.785 254.649C456.745 254.049 456.187 252.605 456.539 251.425C456.891 250.245 458.02 249.775 459.06 250.376L469.645 256.486C470.685 257.087 471.241 258.531 470.889 259.711C470.537 260.891 469.409 261.361 468.369 260.76Z" fill="white"/>
<path d="M530.223 286.02L523.425 282.096C522.385 281.496 521.828 280.052 522.18 278.872C522.532 277.692 523.661 277.222 524.701 277.823L531.497 281.746C532.537 282.347 533.095 283.791 532.743 284.971C532.391 286.151 531.263 286.621 530.223 286.02Z" fill="white"/>
<path d="M504.2 228.968L485.492 218.167C484.451 217.567 483.893 216.122 484.245 214.942C484.597 213.762 485.726 213.293 486.766 213.894L505.474 224.694C506.515 225.295 507.073 226.739 506.721 227.919C506.369 229.099 505.24 229.568 504.2 228.968Z" fill="white"/>
<path d="M506.417 219.752L473.811 200.927C472.771 200.327 472.213 198.884 472.565 197.704C472.917 196.524 474.046 196.053 475.086 196.654L507.693 215.479C508.733 216.08 509.29 217.524 508.938 218.704C508.586 219.884 507.457 220.353 506.417 219.752Z" fill="#E7975B"/>
<path d="M487.177 229.636L468.469 218.836C467.429 218.235 466.871 216.79 467.223 215.61C467.575 214.43 468.704 213.961 469.744 214.562L488.452 225.362C489.493 225.963 490.05 227.408 489.698 228.588C489.346 229.768 488.217 230.236 487.177 229.636Z" fill="#E7975B"/>
<path d="M518.389 237.159L511.592 233.235C510.552 232.635 509.994 231.191 510.346 230.011C510.698 228.831 511.827 228.362 512.867 228.963L519.664 232.886C520.704 233.487 521.261 234.931 520.909 236.111C520.557 237.291 519.429 237.76 518.389 237.159Z" fill="#E7975B"/>
<path d="M485.616 249.725L463.127 236.741C462.087 236.141 461.529 234.698 461.881 233.518C462.233 232.338 463.361 231.868 464.402 232.468L486.891 245.452C487.931 246.052 488.489 247.496 488.137 248.676C487.785 249.856 486.656 250.326 485.616 249.725Z" fill="#F7349D"/>
<path d="M464.912 269.259L445.764 258.205C444.723 257.604 444.165 256.16 444.517 254.98C444.869 253.8 445.998 253.331 447.038 253.931L466.187 264.986C467.227 265.587 467.785 267.031 467.433 268.211C467.081 269.391 465.953 269.86 464.912 269.259Z" fill="#E7975B"/>
<mask id="mask1_1250_1227" style="mask-type:alpha" maskUnits="userSpaceOnUse" x="464" y="158" width="133" height="83">
<path d="M469.198 163.899L591.698 235.649" stroke="#FF0A0A" stroke-width="10" stroke-linecap="round"/>
</mask>
<g mask="url(#mask1_1250_1227)">
<path d="M510.395 190.561L499.182 184.088C498.142 183.487 497.585 182.044 497.937 180.864C498.289 179.684 499.417 179.213 500.457 179.814L511.67 186.288C512.71 186.888 513.268 188.332 512.916 189.512C512.564 190.692 511.435 191.162 510.395 190.561Z" fill="white"/>
<path d="M537.104 205.982L520.569 196.437C519.529 195.836 518.972 194.392 519.324 193.212C519.676 192.032 520.805 191.563 521.845 192.164L538.377 201.708C539.418 202.309 539.976 203.754 539.624 204.934C539.272 206.114 538.144 206.582 537.104 205.982Z" fill="white"/>
<path d="M587.531 235.096L547.279 211.856C546.238 211.256 545.681 209.813 546.033 208.633C546.385 207.453 547.513 206.982 548.553 207.583L588.806 230.822C589.846 231.423 590.404 232.867 590.052 234.047C589.7 235.227 588.571 235.697 587.531 235.096Z" fill="#E7975B"/>
<path d="M489.007 178.213L472.474 168.668C471.433 168.067 470.875 166.623 471.227 165.443C471.579 164.263 472.708 163.794 473.748 164.395L490.282 173.939C491.322 174.54 491.879 175.985 491.527 177.165C491.175 178.345 490.048 178.813 489.007 178.213Z" fill="#F7349D"/>
</g>
<path d="M592.049 214.393L583.853 209.662C583.093 209.224 582.685 208.168 582.942 207.305C583.2 206.443 584.025 206.1 584.785 206.539L592.981 211.27C593.741 211.709 594.149 212.764 593.891 213.627C593.634 214.49 592.809 214.832 592.049 214.393Z" fill="white"/>
<path d="M607.681 223.42L599.485 218.688C598.725 218.25 598.317 217.195 598.575 216.332C598.832 215.469 599.657 215.126 600.417 215.565L608.613 220.296C609.373 220.736 609.781 221.791 609.524 222.653C609.267 223.516 608.441 223.859 607.681 223.42Z" fill="white"/>
<path d="M623.314 232.445L615.119 227.714C614.358 227.275 613.95 226.22 614.208 225.357C614.465 224.495 615.29 224.151 616.05 224.591L624.246 229.322C625.006 229.761 625.414 230.816 625.157 231.679C624.9 232.542 624.075 232.884 623.314 232.445Z" fill="white"/>
<path d="M630.999 236.887L630.752 236.739C629.991 236.3 629.584 235.244 629.841 234.382C630.098 233.52 630.923 233.176 631.684 233.616L631.93 233.764C632.69 234.202 633.098 235.257 632.841 236.12C632.584 236.983 631.759 237.326 630.999 236.887Z" fill="#F7349D"/>
<g opacity="0.5">
<path d="M232.509 314.019C218.819 321.923 196.624 321.923 182.934 314.019C169.244 306.115 169.244 293.301 182.934 285.397C196.623 277.493 218.819 277.493 232.508 285.398C246.198 293.301 246.198 306.116 232.509 314.019Z" fill="#01012F"/>
</g>
<path d="M156.212 138.903L166.202 255.195C166.202 261.654 170.469 268.113 179.006 273.041C196.077 282.898 223.756 282.898 240.827 273.042C249.364 268.113 253.631 261.654 253.63 255.195L263.62 138.903H156.212Z" fill="url(#paint11_linear_1250_1227)"/>
<g opacity="0.25">
<path d="M263.62 138.903H156.211L157.854 158.035C160.316 161.191 163.628 164.216 167.809 166.99C188.333 180.605 222.199 183.228 245.308 173.424L241.733 258.48C241.577 262.187 240.297 265.793 237.896 268.622C234.416 272.716 227.713 277.535 214.828 280.258C224.326 279.641 233.544 277.248 240.827 273.042C249.363 268.113 253.63 261.655 253.63 255.195L261.641 161.932L263.62 138.903Z" fill="#05033D"/>
</g>
<path d="M170.434 105.2C159.752 111.368 154.316 119.413 154.101 127.496L154.088 127.469L153.107 136.74C153.079 136.983 153.048 137.223 153.029 137.464L153.013 137.617L153.024 137.611C152.435 146.444 157.97 155.388 169.651 162.131C191.888 174.97 227.944 174.971 250.183 162.132C261.936 155.344 267.472 146.33 266.801 137.442L266.806 137.449L266.797 137.356C266.793 137.302 266.786 137.249 266.781 137.196L265.751 126.784L265.706 126.9C265.244 119.02 259.817 111.217 249.396 105.201C238.494 98.9068 224.204 95.7588 209.914 95.7588C195.624 95.7588 181.336 98.906 170.434 105.2Z" fill="url(#paint12_linear_1250_1227)"/>
<path d="M177.207 109.089C159.142 119.518 159.143 136.428 177.208 146.857C195.272 157.288 224.56 157.288 242.624 146.858C260.689 136.429 260.689 119.519 242.624 109.09C233.591 103.874 221.754 101.267 209.914 101.267C198.077 101.268 186.238 103.875 177.207 109.089Z" fill="#9C2DF9"/>
<path d="M175.012 109.089C156.948 119.518 156.949 136.428 175.013 146.857C193.078 157.288 222.366 157.288 240.431 146.858C258.495 136.429 258.493 119.519 240.429 109.09C231.396 103.874 219.558 101.267 207.719 101.267C195.882 101.268 184.043 103.875 175.012 109.089Z" fill="url(#paint13_linear_1250_1227)"/>
<g opacity="0.5">
<path d="M182.694 113.068C200.758 102.638 230.046 102.638 248.111 113.069C248.341 113.201 248.534 113.347 248.758 113.481C247.016 111.928 244.982 110.452 242.624 109.09C224.56 98.6606 195.271 98.6598 177.207 109.089C159.372 119.386 159.18 135.987 176.56 146.445C164.955 136.097 166.988 122.135 182.694 113.068Z" fill="#05033D"/>
</g>
<path d="M177.206 109.089C167.153 114.894 162.703 122.705 163.84 130.29C164.747 124.248 169.197 118.349 177.206 113.724C195.271 103.295 224.56 103.295 242.624 113.725C250.634 118.349 255.084 124.249 255.992 130.292C257.128 122.707 252.678 114.895 242.624 109.09C233.592 103.875 221.752 101.268 209.914 101.267C198.076 101.267 186.239 103.874 177.206 109.089Z" fill="url(#paint14_linear_1250_1227)"/>
<path d="M177.208 146.857C159.143 136.428 159.142 119.518 177.207 109.089C195.271 98.6589 224.56 98.6597 242.624 109.09C260.689 119.519 260.689 136.429 242.624 146.858C236.591 150.342 229.294 152.635 221.592 153.79L220.751 151.032C220.412 149.917 219.385 149.157 218.22 149.157H201.611C200.446 149.157 199.418 149.917 199.079 151.032L198.24 153.79C190.538 152.634 183.242 150.341 177.208 146.857ZM170.49 104.747C148.495 117.189 148.316 137.675 170.089 150.502C191.863 163.33 227.344 163.643 249.34 151.201C271.336 138.758 271.516 118.273 249.742 105.445C238.638 98.9029 223.967 95.6157 209.34 95.6157C195.284 95.6149 181.269 98.6493 170.49 104.747Z" fill="url(#paint15_linear_1250_1227)"/>
<path d="M242.624 107.113C224.559 96.6831 195.271 96.6831 177.207 107.113C167.739 112.578 163.243 119.824 163.7 126.984C164.114 120.483 168.61 114.053 177.207 109.09C195.271 98.6599 224.559 98.6607 242.624 109.09C251.22 114.054 255.716 120.484 256.132 126.986C256.588 119.826 252.092 112.579 242.624 107.113Z" fill="white"/>
<path d="M249.34 149.223C227.345 161.665 191.862 161.353 170.088 148.525C159.727 142.421 154.348 134.581 153.916 126.701C153.487 135.236 158.86 143.887 170.088 150.502C191.862 163.33 227.345 163.643 249.34 151.201C260.868 144.679 266.393 135.949 265.916 127.269C265.512 135.284 259.993 143.197 249.34 149.223Z" fill="white"/>
<path d="M215.612 155.228H204.22C203.932 155.228 203.697 154.993 203.697 154.705V153.066C203.697 152.777 203.932 152.543 204.22 152.543H215.612C215.9 152.543 216.134 152.777 216.134 153.066V154.705C216.134 154.993 215.9 155.228 215.612 155.228Z" fill="#0C0978"/>
<path d="M203.697 152.544H216.134V154.307H203.697V152.544Z" fill="#150C80"/>
<path d="M211.436 243.249C210.219 247.829 205.519 250.556 200.939 249.338C196.359 248.12 193.633 243.42 194.851 238.841C196.068 234.261 200.389 232.962 204.968 234.181C209.548 235.398 212.654 238.669 211.436 243.249Z" fill="#E7975B"/>
<path d="M218.192 234.21C216.464 235.898 214.254 235.68 212.788 234.179C211.32 232.678 211.153 230.464 212.88 228.776C214.608 227.087 217.892 226.255 219.359 227.756C220.825 229.257 219.919 232.521 218.192 234.21Z" fill="#E7975B"/>
<path d="M209.218 227.03C208.795 229.408 206.869 230.516 204.804 230.148C202.737 229.78 201.313 228.078 201.737 225.7C202.16 223.321 204.349 220.734 206.414 221.102C208.48 221.469 209.641 224.652 209.218 227.03Z" fill="#E7975B"/>
<path d="M198.156 225.932C199.075 228.165 198.044 230.133 196.104 230.932C194.164 231.73 192.048 231.056 191.128 228.823C190.209 226.589 190.668 223.232 192.608 222.433C194.548 221.636 197.236 223.698 198.156 225.932Z" fill="#E7975B"/>
<mask id="mask2_1250_1227" style="mask-type:alpha" maskUnits="userSpaceOnUse" x="195" y="83" width="45" height="84">
<path d="M207.823 154.215C221.073 146.34 229.448 138.965 225.948 118.965C224.403 110.139 220.376 103.114 216.056 96.3862" stroke="#FF0A0A" stroke-width="25" stroke-linecap="round"/>
</mask>
<g mask="url(#mask2_1250_1227)">
<g opacity="0.5">
<path d="M213.433 153.885C213.433 153.885 243.462 143.823 231.304 109.319C219.145 74.8147 195.472 64.2987 205.008 36.6963C205.008 36.6963 190.063 59.0411 204.029 89.2731C217.995 119.505 221.058 116.032 220.894 130.491C220.699 147.669 206.822 153.885 206.822 153.885H213.433Z" fill="white"/>
</g>
</g>
<mask id="mask3_1250_1227" style="mask-type:alpha" maskUnits="userSpaceOnUse" x="210" y="-10" width="34" height="45">
<path d="M222.893 21.8396C224.666 15.4876 227.19 8.99258 230.553 2.51758" stroke="#FF0A0A" stroke-width="25" stroke-linecap="round"/>
</mask>
<g mask="url(#mask3_1250_1227)">
<g opacity="0.5">
<path d="M216.135 41.4957C216.135 41.4957 213.008 20.8557 232.368 0.0556641C232.368 0.0556641 215.248 38.2957 220.848 57.1757C220.848 57.1757 216.319 45.1749 216.135 41.4957Z" fill="white"/>
</g>
</g>
<defs>
<linearGradient id="paint0_linear_1250_1227" x1="781.267" y1="522.767" x2="847.102" y2="523.08" gradientUnits="userSpaceOnUse">
<stop stop-color="#E29A65"/>
<stop offset="0.5" stop-color="#E67C79"/>
<stop offset="1" stop-color="#DA4188"/>
</linearGradient>
<linearGradient id="paint1_linear_1250_1227" x1="693.722" y1="437.072" x2="805.569" y2="437.612" gradientUnits="userSpaceOnUse">
<stop stop-color="#E29A65"/>
<stop offset="0.5" stop-color="#E67C79"/>
<stop offset="1" stop-color="#DA4188"/>
</linearGradient>
<linearGradient id="paint2_linear_1250_1227" x1="1.9588" y1="473.883" x2="111.765" y2="472.453" gradientUnits="userSpaceOnUse">
<stop stop-color="#E29A65"/>
<stop offset="0.5" stop-color="#E67C79"/>
<stop offset="1" stop-color="#DA4188"/>
</linearGradient>
<linearGradient id="paint3_linear_1250_1227" x1="135.098" y1="299.547" x2="284.102" y2="299.636" gradientUnits="userSpaceOnUse">
<stop stop-color="#E29A65"/>
<stop offset="0.5" stop-color="#E67C79"/>
<stop offset="1" stop-color="#DA4188"/>
</linearGradient>
<linearGradient id="paint4_linear_1250_1227" x1="124.86" y1="436.541" x2="690.391" y2="493.705" gradientUnits="userSpaceOnUse">
<stop stop-color="#E29A65"/>
<stop offset="0.5" stop-color="#E67C79"/>
<stop offset="1" stop-color="#DA4188"/>
</linearGradient>
<linearGradient id="paint5_linear_1250_1227" x1="547.378" y1="246.373" x2="453.059" y2="112.69" gradientUnits="userSpaceOnUse">
<stop stop-color="#0D0C6F"/>
<stop offset="0.5" stop-color="#9F2F63"/>
<stop offset="1" stop-color="#DA4188"/>
</linearGradient>
<linearGradient id="paint6_linear_1250_1227" x1="169.134" y1="387.689" x2="493.535" y2="427.748" gradientUnits="userSpaceOnUse">
<stop stop-color="#E19769"/>
<stop offset="0.54" stop-color="#DA4188"/>
<stop offset="1" stop-color="#7DCCFF"/>
</linearGradient>
<linearGradient id="paint7_linear_1250_1227" x1="275.093" y1="322.091" x2="509.701" y2="428.406" gradientUnits="userSpaceOnUse">
<stop stop-color="#DA4188"/>
<stop offset="0.54" stop-color="#DA4188"/>
<stop offset="1" stop-color="#7DCCFF"/>
</linearGradient>
<linearGradient id="paint8_linear_1250_1227" x1="598.525" y1="277.513" x2="401.604" y2="177.496" gradientUnits="userSpaceOnUse">
<stop stop-color="#7DCCFF"/>
<stop offset="0.5" stop-color="#DA4188"/>
<stop offset="1" stop-color="#7DCCFF"/>
</linearGradient>
<linearGradient id="paint9_linear_1250_1227" x1="399.603" y1="165.177" x2="816.388" y2="396.072" gradientUnits="userSpaceOnUse">
<stop stop-color="#2A0A8B"/>
<stop offset="0.54" stop-color="#3D2780"/>
<stop offset="1" stop-color="#504475"/>
</linearGradient>
<linearGradient id="paint10_linear_1250_1227" x1="566.995" y1="265.643" x2="435.426" y2="206.874" gradientUnits="userSpaceOnUse">
<stop stop-color="#560DE5"/>
<stop offset="0.5" stop-color="#801FEF"/>
<stop offset="1" stop-color="#AA31F8"/>
</linearGradient>
<linearGradient id="paint11_linear_1250_1227" x1="161.465" y1="164.621" x2="248.548" y2="263.135" gradientUnits="userSpaceOnUse">
<stop stop-color="#D07796"/>
<stop offset="0.22" stop-color="#DA4188"/>
<stop offset="1" stop-color="#7DCCFF"/>
</linearGradient>
<linearGradient id="paint12_linear_1250_1227" x1="155.097" y1="141.038" x2="261.844" y2="149.048" gradientUnits="userSpaceOnUse">
<stop stop-color="#DB8A7A"/>
<stop offset="0.38" stop-color="#A260B5"/>
<stop offset="1" stop-color="#7DCCFF"/>
</linearGradient>
<linearGradient id="paint13_linear_1250_1227" x1="164.104" y1="127.564" x2="251.43" y2="129.64" gradientUnits="userSpaceOnUse">
<stop stop-color="#5921EE"/>
<stop offset="0.5" stop-color="#DA4188"/>
<stop offset="1" stop-color="#AC336B"/>
</linearGradient>
<linearGradient id="paint14_linear_1250_1227" x1="186.539" y1="111.549" x2="248.444" y2="118.783" gradientUnits="userSpaceOnUse">
<stop stop-color="#16005B"/>
<stop offset="0.5" stop-color="#652989"/>
<stop offset="1" stop-color="#B552B7"/>
</linearGradient>
<linearGradient id="paint15_linear_1250_1227" x1="159.232" y1="126.633" x2="259.737" y2="127.387" gradientUnits="userSpaceOnUse">
<stop stop-color="#C665AF"/>
<stop offset="0.5" stop-color="#DA4188"/>
<stop offset="1" stop-color="#7DCCFF"/>
</linearGradient>
</defs>
</svg>
