<svg width="160" height="160" viewBox="0 0 160 160" fill="none" xmlns="http://www.w3.org/2000/svg">
<mask id="mask0_805_4132" style="mask-type:alpha" maskUnits="userSpaceOnUse" x="0" y="0" width="160" height="160">
<circle cx="79.7377" cy="79.7377" r="79.7377" fill="#D9D9D9"/>
</mask>
<g mask="url(#mask0_805_4132)">
<path d="M123.451 145.569C123.085 145.83 122.667 146.092 122.301 146.353C121.882 146.614 121.516 146.876 121.098 147.085C120.732 147.294 120.418 147.503 120.052 147.713C120 147.765 119.948 147.765 119.896 147.817C118.693 148.549 117.438 149.229 116.183 149.856C115.817 150.065 115.399 150.275 115.033 150.431C115.033 150.431 114.98 150.484 114.928 150.484C114.51 150.693 114.092 150.902 113.673 151.111C112.837 151.53 111.948 151.896 111.111 152.262C110.693 152.471 110.222 152.628 109.804 152.784C109.386 152.941 108.915 153.15 108.497 153.307C108.079 153.464 107.608 153.673 107.19 153.83C107.19 153.83 107.19 153.83 107.137 153.83C106.719 153.987 106.248 154.144 105.83 154.301C104.889 154.614 103.896 154.928 102.954 155.242C102.641 155.347 102.275 155.451 101.961 155.556C100.967 155.869 99.974 156.131 98.9805 156.34C98.6145 156.445 98.2485 156.497 97.8302 156.601C96.889 156.811 95.8955 157.02 94.9544 157.229C94.7452 157.281 94.5883 157.281 94.3792 157.333C94.0655 157.386 93.6994 157.438 93.3857 157.49C92.9151 157.543 92.4968 157.647 92.0262 157.699C91.8171 157.752 91.6079 157.752 91.3988 157.804C91.1374 157.856 90.8236 157.909 90.5099 157.909C89.6733 158.013 88.7844 158.118 87.9478 158.222C87.6864 158.275 87.3727 158.275 87.1112 158.327H87.0589C86.6929 158.379 86.3269 158.379 85.9609 158.431C85.5949 158.484 85.2289 158.484 84.8629 158.484C84.6537 158.484 84.3923 158.536 84.1831 158.536C83.7648 158.536 83.3988 158.588 83.0328 158.588C82.5099 158.588 82.0393 158.641 81.5164 158.641C80.9936 158.641 80.523 158.641 80.0001 158.641C79.6341 158.641 79.2681 158.641 78.9021 158.641C56.8367 158.327 37.0197 148.967 22.8498 134.118C22.8498 134.118 22.8498 134.065 22.7975 134.065C21.2289 132.654 22.5883 125.124 28.9151 120.366C36.8628 114.353 55.8955 110.588 55.8955 110.588C55.8955 110.588 63.2681 109.386 90.6145 115.085C106.614 118.431 118.797 123.294 125.595 136.471C127.007 139.19 128.418 143.373 123.451 145.569Z" fill="white"/>
<path d="M90.7714 114.51C100.811 116.549 111.53 118.745 119.791 125.386C122.562 127.634 124.392 130.928 125.909 134.118C126.641 135.686 127.373 137.307 127.948 139.033C128.262 140.183 128.732 141.49 128.471 142.85C128.418 143.216 128.105 143.686 127.843 143.948C126.641 145.15 125.333 145.882 124.026 146.824C116.34 152.157 107.503 155.922 98.3531 157.909C77.9609 162.353 55.8955 158.902 37.9609 148.183C32.0001 144.575 26.5099 140.183 21.804 135.007C21.2812 134.379 21.2812 133.333 21.2812 132.654C21.3334 131.085 21.7517 129.569 22.2746 128.157C23.5295 124.915 25.1504 121.673 27.9217 119.425C29.9086 118.065 32.0524 116.915 34.2485 115.974C41.1504 113.046 48.4184 111.007 55.8955 110.17C56.523 110.118 56.6276 111.007 56.0001 111.111C48.8367 112.575 41.7256 114.771 35.0851 117.752C32.6798 118.954 30.1178 120 28.1831 121.882C26.3531 123.869 25.0459 126.327 24.0001 128.837C23.3204 130.353 22.8498 132.758 23.0589 133.961C26.3531 137.882 30.2223 141.333 34.4053 144.314C57.3073 160.314 92.0785 161.359 116.445 148.026C118.641 146.824 120.784 145.464 122.824 144.052C123.817 143.373 124.863 142.797 125.647 142.013C125.699 141.961 125.647 142.013 125.647 142.065C125.647 142.118 125.595 142.17 125.595 142.17C125.647 141.542 125.438 140.706 125.177 139.869C124.235 136.837 122.719 133.647 121.098 130.876C118.536 126.745 114.196 124.131 109.804 122.039C106.771 120.627 103.582 119.529 100.34 118.484C97.0981 117.438 93.804 116.549 90.5099 115.765C89.6733 115.556 89.9348 114.353 90.7714 114.51Z" fill="black"/>
<path d="M119.791 125.856C115.817 122.248 103.111 116.601 93.5951 114.301C89.4121 113.307 79.582 110.431 72.1049 109.699C68.0788 109.281 60.6539 110.275 56.0003 110.431C51.5036 110.588 36.3402 113.673 29.0722 118.797C27.5036 119.895 20.4971 126.85 17.4644 144.68C15.1114 158.431 12.1833 176.261 12.0788 182.327H131.242C133.229 146.876 123.922 129.621 119.791 125.856Z" fill="black"/>
<path d="M118.902 126.85C116.497 124.81 113.412 123.242 110.536 121.882C106.039 119.739 101.333 117.908 96.523 116.497C91.7126 115.19 86.693 113.935 81.8825 112.784C78.6407 112.052 75.3465 111.425 72.0524 111.059C68.8629 110.797 65.4119 111.163 62.1701 111.373C59.7126 111.582 57.1505 111.686 54.6407 111.895C47.3204 112.889 39.8956 114.824 33.2028 117.961C31.9479 118.588 30.7452 119.216 29.6472 120.052C26.876 122.562 24.889 126.065 23.3204 129.464C20.7583 135.111 19.3465 141.281 18.4054 147.399C17.6211 152.209 16.6799 157.595 15.9479 162.405C14.9544 168.993 13.8041 175.686 13.4903 182.327L12.1309 180.967H131.242L129.882 182.222C130.615 167.791 129.987 152.941 125.438 139.085C123.922 134.797 122.092 130.196 118.902 126.85ZM120.732 124.863C122.719 126.745 124.026 128.889 125.438 131.137C129.412 137.673 131.294 145.098 132.34 152.627C133.804 162.458 133.752 172.497 132.654 182.379C132.654 183.111 132.026 183.686 131.294 183.634H12.1831C11.4511 183.634 10.8237 183.007 10.8237 182.274C10.876 180.497 11.0851 178.824 11.242 177.098C11.8171 172.026 12.6014 167.007 13.438 161.987C14.1701 157.176 15.1635 151.791 15.9479 146.98C16.9936 140.654 18.4577 134.275 21.072 128.418C22.8498 124.654 24.889 120.941 28.0786 118.118C29.3335 117.176 30.693 116.392 32.1047 115.712C39.1635 112.418 46.693 110.484 54.3269 109.386C56.8367 109.176 59.3988 109.072 61.9609 108.81C65.4119 108.549 68.7583 108.183 72.3139 108.444C75.7649 108.81 79.1113 109.438 82.4577 110.17C87.4773 111.32 92.34 112.523 97.3073 113.882C102.222 115.346 107.033 117.176 111.686 119.373C114.876 121.046 117.909 122.51 120.732 124.863Z" fill="black"/>
<path d="M121.987 182.327C118.484 149.072 111.582 132.131 111.582 132.131C109.961 123.19 105.673 116.131 104.314 115.503C101.856 114.405 101.438 114.771 101.438 114.771C105.412 120.157 107.451 129.307 107.974 134.065C92.9675 140.601 65.255 136.052 55.5818 133.961C52.3923 128.262 46.2747 116.34 40.9413 111.791C40.4707 111.425 39.8433 111.373 39.3204 111.582C38.9021 111.791 38.3269 112.157 37.8041 112.784C37.5426 113.098 37.5426 113.516 37.8564 113.83C37.9086 113.882 37.9609 113.935 38.0132 113.987C46.9021 123.713 51.7648 140.706 50.5622 153.83C48.4184 177.15 44.34 182.275 44.34 182.275H121.987V182.327Z" fill="url(#paint0_linear_805_4132)"/>
<path d="M120.994 181.438C120.523 179.66 120.209 177.935 120.105 176.105C118.536 161.307 116.34 146.301 111.111 132.34L111.843 132.601C111.582 132.758 111.268 132.654 111.111 132.444C110.379 128.941 109.333 125.49 107.765 122.248C106.719 120.157 105.673 118.013 104.052 116.392C103.425 116.078 102.588 115.817 101.909 115.608C101.804 115.556 101.699 115.556 101.647 115.556C101.647 115.556 101.647 115.556 101.699 115.556H101.752C101.804 115.556 101.752 115.556 101.856 115.451L101.961 114.458C102.432 115.242 103.477 117.176 103.843 117.961C105.516 121.464 106.562 125.281 107.399 129.046C107.713 130.719 108.026 132.444 108.235 134.17C108.235 134.327 108.183 134.431 108.026 134.536C99.7649 137.987 90.6145 138.301 81.7779 138.196C77.3335 138.091 72.889 137.725 68.4969 137.255C64.1047 136.732 59.7126 136.052 55.3204 135.163C55.0067 135.111 54.7975 134.902 54.6407 134.693C52.4969 130.876 50.5099 127.111 48.3139 123.399C46.1701 119.791 43.9217 116.026 40.889 113.098L40.3662 112.627C39.6341 112.105 38.7975 113.046 38.2746 113.516C38.2224 113.569 38.2224 113.621 38.2746 113.673L38.3269 113.725C40.0001 115.608 41.4642 117.647 42.7714 119.791C45.072 123.556 46.8498 127.529 48.7322 131.503C51.4511 137.621 51.5557 144.418 51.5034 151.007C51.1897 157.542 50.4054 164.078 49.3596 170.51C48.4707 174.902 47.6864 179.503 45.3335 183.425L44.2877 181.229C68.706 180.863 96.523 181.072 120.994 181.438ZM123.033 183.268C97.9348 183.634 69.3858 183.843 44.2877 183.686L43.242 181.49C44.8106 178.876 45.5426 175.843 46.3792 172.915C47.7387 167.739 48.6276 162.458 49.255 157.124L49.6211 153.935C50.5622 146.458 48.157 139.19 46.5361 131.974C45.2812 125.699 42.0916 119.843 37.9086 115.033L37.3858 114.458L37.3335 114.405L37.2812 114.353C37.0197 114.039 36.8629 113.673 36.8629 113.255C36.9152 112.523 37.5949 111.948 38.1178 111.529C39.1635 110.641 40.523 110.484 41.5688 111.529C43.3988 113.098 44.8629 114.928 46.2746 116.81C50.1439 122.039 53.2812 127.843 56.4184 133.542L55.7387 133.02C64.3139 134.85 73.0459 136.157 81.8302 136.732C90.5099 137.15 99.608 137.15 107.765 133.804L107.556 134.17C107.347 132.497 107.085 130.824 106.719 129.15C105.987 125.856 104.889 122.614 103.425 119.529C103.164 118.954 102.536 117.856 102.222 117.281C101.804 116.549 101.281 115.869 100.758 115.242C100.445 114.876 100.654 114.353 100.967 114.144C102.013 113.621 103.216 114.248 104.209 114.614C104.418 114.719 104.784 114.876 104.994 115.033C106.876 116.81 107.922 119.32 108.967 121.621C109.699 123.294 110.275 125.02 110.745 126.745C111.268 128.471 111.634 130.248 111.948 132.026L111.164 131.66C111.425 131.503 111.739 131.556 111.896 131.817C115.503 141.961 118.013 152.523 120.052 163.085C120.889 167.32 121.569 171.556 122.249 175.791C122.824 178.248 122.981 180.863 123.033 183.268Z" fill="black"/>
<path d="M59.1897 145.621C60.5758 145.621 61.6995 144.497 61.6995 143.111C61.6995 141.725 60.5758 140.601 59.1897 140.601C57.8035 140.601 56.6799 141.725 56.6799 143.111C56.6799 144.497 57.8035 145.621 59.1897 145.621Z" fill="black"/>
<path d="M107.556 142.64C108.769 142.64 109.752 141.657 109.752 140.444C109.752 139.232 108.769 138.248 107.556 138.248C106.343 138.248 105.36 139.232 105.36 140.444C105.36 141.657 106.343 142.64 107.556 142.64Z" fill="black"/>
<path d="M95.686 128.552C94.588 133.937 87.4768 137.179 75.503 132.316C63.0585 127.297 57.6729 115.323 56.3134 111.767C63.686 97.9634 58.5618 88.3947 58.5618 88.3947C75.5553 86.9307 90.4049 106.8 90.4049 106.8L92.7056 116.63C92.9148 117.467 93.3331 118.199 93.9605 118.722C95.0585 120.656 96.3657 125.101 95.686 128.552Z" fill="white"/>
<path d="M56.0522 111.924C57.0457 110.408 57.6732 108.63 58.0915 106.905C58.8758 103.297 59.1372 99.6366 59.1895 95.9765V94.617C59.0326 93.2575 58.562 91.8457 58.0392 90.5908C57.3594 88.9176 59.8169 87.8719 60.6013 89.5451C60.7058 89.7542 60.7058 90.1203 60.7058 90.3294C60.8627 97.4405 61.1764 106.591 56.6797 112.499C56.366 112.813 55.7385 112.342 56.0522 111.924Z" fill="black"/>
<path d="M90.9802 106.695C91.7645 107.166 92.0259 107.794 92.1305 108.421C92.4442 109.676 92.3397 111.035 92.6534 112.343C92.9148 113.597 93.6991 114.8 93.9083 116.107C94.1697 117.467 94.954 120.343 95.2678 121.754C95.3723 122.068 95.1632 122.434 94.7972 122.486C94.588 122.539 94.4312 122.486 94.2743 122.382C93.5946 121.807 93.2808 121.231 92.8625 120.499C92.1828 119.244 91.7122 118.094 91.2939 116.682C90.9279 115.428 91.0848 114.068 90.771 112.761C90.5096 111.506 89.7776 110.303 89.5161 108.996C89.3593 108.369 89.307 107.689 89.7776 106.905C90.0913 106.591 90.6142 106.486 90.9802 106.695Z" fill="black"/>
<path d="M94.745 120.499C84.7581 119.976 76.6012 116.839 68.6535 102.669C75.3463 108.578 83.2418 110.826 91.5555 111.872L92.6535 116.682C92.8627 117.519 94.1176 119.976 94.745 120.499Z" fill="black"/>
<path d="M94.327 118.565C96.1047 121.911 97.1505 126.094 96.0524 129.806C95.2158 132.421 92.8106 134.355 90.1962 135.087C84.1309 136.708 77.1243 134.146 71.7387 131.271C65.0982 127.558 60.1832 121.336 57.0459 114.538C56.8368 114.016 57.5688 113.597 57.8825 114.12C58.9805 116.316 60.2354 118.46 61.6472 120.395C63.059 122.382 64.6799 124.212 66.51 125.833C71.8433 130.643 79.059 133.623 86.2747 133.623C93.6995 133.414 96.523 129.493 94.7975 122.277C94.5361 121.127 94.1178 119.924 93.5426 118.931C93.2289 118.512 94.0132 118.042 94.327 118.565Z" fill="black"/>
<path d="M114.562 55.7674C115.503 60.1595 115.974 63.7151 113.412 75.4275C110.902 87.0877 117.02 89.4929 102.536 108.16C96.6274 115.794 82.3006 113.65 70.6928 105.754C66.7712 103.088 65.098 96.238 62.1699 91.3752C59.8692 87.5582 58.8235 91.5321 55.7908 88.238C51.6601 83.7412 46.6928 74.6955 49.1503 58.6955C53.1241 32.7608 73.6732 29.7282 88.8889 32.604C104.209 35.5321 112.052 44.2118 114.562 55.7674Z" fill="white"/>
<path d="M58.4052 92.8915C57.2026 90.8523 55.6339 89.0745 54.1699 87.1922C52.7581 85.2575 51.6078 83.1137 50.6666 80.9177C44.4444 65.6497 46.8496 44.1595 62.1176 35.166C68.4444 31.5059 76.0784 30.617 83.1895 31.1922C98.4052 32.2902 112.366 39.2967 115.66 55.4013C117.438 62.5124 115.033 69.8327 113.673 76.7869C113.046 80.2379 113.569 83.7935 113.516 87.349C113.464 90.9569 112.471 94.5647 111.111 97.9111C110.274 100.212 108.81 102.251 107.294 104.133C104.784 107.166 102.274 110.251 99.0849 112.604C98.3529 113.127 97.0457 113.388 96.1568 113.493C93.6993 113.859 91.2941 113.963 88.8366 113.807C79.2156 113.388 68.915 108.735 65.0457 99.4275C64.8888 99.0614 65.4117 98.8 65.6209 99.1137C70.6405 107.061 79.8431 110.983 88.9934 111.506C91.817 111.663 94.6928 111.61 97.464 111.035C98.8235 110.356 100.026 109.153 101.176 108.055C104 105.231 106.876 102.199 108.915 98.7477C111.373 94.0941 112.732 89.0222 112.314 83.7412C112.209 81.3882 112.157 78.9307 112.627 76.5778C113.046 74.2248 113.569 71.9765 113.882 69.5713C114.196 67.2706 114.353 64.9177 114.353 62.617C114.091 55.8719 111.895 48.9177 107.608 43.6889C98.1438 31.9242 75.7647 28.8392 63.1634 36.8915C55.2156 41.8065 51.5032 51.0092 50.3006 59.9503C48.4705 70.6693 48.9934 81.2314 57.5163 89.0222L60.0261 91.6366C61.0196 92.7869 59.2418 94.1464 58.4052 92.8915Z" fill="black"/>
<path d="M64.5749 76.2641C64.5749 76.2641 62.954 68.4209 55.32 69.3621C48.7318 70.1987 46.4311 85.9896 61.3854 90.3817" fill="white"/>
<path d="M60.7058 83.532C59.5032 82.8523 58.6666 81.7019 58.6143 80.2902C58.6666 79.2444 58.8235 78.0418 58.562 76.9961C58.4052 76.0026 57.3594 75.7411 56.5751 75.7934C55.7385 75.9503 55.2156 76.9961 55.0588 77.8327C55.0588 77.8849 55.0065 78.0418 55.0065 78.0941C54.9542 78.3555 54.5359 78.3555 54.4313 78.0941C53.7516 76.0549 55.2679 73.8065 57.464 74.0679C60.549 74.2771 60.9673 77.5189 60.3921 79.9764C60.0784 81.0222 60.4967 81.9634 61.0718 82.8523L61.1764 83.0091C61.4379 83.3229 61.0196 83.7412 60.7058 83.532Z" fill="black"/>
<path d="M102.536 70.7215C103.32 74.4339 104.784 77.8849 106.614 81.1267C108.235 85.1006 104.052 88.8653 100.34 88.7084C99.9214 88.7084 99.8691 88.1332 100.235 88.0287C102.588 87.2966 104.732 85.728 105.098 83.3228C105.255 82.5908 105.046 81.9633 104.68 81.3359C102.954 78.094 101.908 74.3816 102.17 70.7215C102.17 70.46 102.536 70.46 102.536 70.7215Z" fill="black"/>
<path d="M64.3137 76.3163C63.1111 73.2313 60.4967 70.3032 56.9934 70.3555C56.6797 70.3032 56.1568 70.4078 55.8431 70.4078C54.9542 70.4601 54.2222 70.7738 53.5424 71.4013C50.196 74.7477 50.7712 80.6562 53.4901 84.3686C54.4313 85.6758 55.6339 86.8261 56.9934 87.7673C58.3529 88.7085 59.8692 89.4405 61.4901 90.0679C61.8562 90.1725 61.6993 90.7477 61.3333 90.6954C57.83 89.9634 54.4836 88.2379 52.183 85.362C48.6274 81.0745 47.8954 73.9111 52.1307 69.7281C53.0718 68.8915 54.379 68.264 55.6862 68.264C56.1045 68.264 56.732 68.1594 57.1503 68.264C59.3464 68.3686 61.4379 69.4666 62.7973 71.1921C64 72.6562 64.6797 74.4339 64.8888 76.2117C64.8888 76.5254 64.4183 76.63 64.3137 76.3163Z" fill="black"/>
<path d="M98.5621 93.804C95.2157 96.9936 88.8889 94.4315 87.2157 90.5622C87.0066 90.0916 87.5294 89.6733 87.9477 89.8825C88.8366 90.353 89.6209 90.8236 90.4575 91.1897C92.8628 92.2877 95.3726 93.1766 98.0392 92.9151C98.5621 92.8106 98.9281 93.438 98.5621 93.804Z" fill="black"/>
<path d="M91.0849 63.7909C92.2352 63.6863 92.8104 62.3268 92.183 61.2811C91.8169 60.7582 91.3464 60.2876 90.6666 60.0262C88.6797 59.3987 82.196 60.8105 79.3725 64.0523C76.8627 67.0327 85.8562 64.2615 91.0849 63.7909Z" fill="black"/>
<path d="M104.889 64.6274C104 64.366 103.739 63.0588 104.471 62.2222C104.837 61.8039 105.36 61.4379 105.935 61.3333C107.712 61.0196 111.791 62.6405 112.941 65.7255C113.987 68.3922 109.124 65.6732 104.889 64.6274Z" fill="black"/>
<path d="M83.0329 75.9216C81.778 75.8693 80.8368 74.8235 80.9414 73.5686L80.9937 72.1046C81.0459 70.8497 82.0917 69.9085 83.3466 70.0131C84.6015 70.0654 85.5427 71.1111 85.4381 72.366L85.3858 73.8301C85.3335 75.0327 84.2878 75.9739 83.0329 75.9216Z" fill="black"/>
<path d="M105.046 76.7061C103.895 76.6538 103.006 75.6603 103.059 74.51L103.111 73.1505C103.163 72.0002 104.157 71.1113 105.307 71.1636C106.457 71.2159 107.346 72.2093 107.294 73.3596L107.242 74.7191C107.189 75.8694 106.196 76.7583 105.046 76.7061Z" fill="black"/>
<path d="M87.7385 73.098C86.013 71.9477 84.1307 71.1633 82.0392 71.5816C81.3594 71.6862 80.6797 71.8954 80.2614 72.366C80.1045 72.5751 79.7385 72.5228 79.7385 72.2091C79.7908 71.1633 80.6797 70.4836 81.5163 70.0653C83.1372 69.2287 85.3856 69.3856 86.8496 70.4836C87.3725 70.7973 89.1503 72.732 88.2091 73.1503C88 73.2548 87.8954 73.2026 87.7385 73.098Z" fill="black"/>
<path d="M102.693 73.3596C102.693 71.1636 105.411 70.3792 107.085 71.1636C108.026 71.5819 108.706 72.4185 108.967 73.4119C109.072 73.7256 108.601 73.9871 108.392 73.7256C107.503 72.6799 105.987 72.157 104.784 72.7845C104.418 72.9936 104.366 73.1505 104.261 73.3596C104.261 74.4054 102.745 74.3531 102.693 73.3596Z" fill="black"/>
<path d="M118.747 64.366C121.1 56.3137 117.021 50.7189 114.093 48C112.734 44.3398 110.433 40.732 106.773 37.9608C106.041 37.3856 105.256 36.8627 104.368 36.3921C103.636 35.9738 102.851 35.6078 102.067 35.2418C95.165 32.2614 84.1323 28.7581 73.2042 30.6405C69.0212 31.3202 64.8382 32.8366 60.9166 35.3987C60.8643 35.3987 60.8643 35.451 60.8643 35.451C60.5506 35.6601 60.2368 35.8693 59.9754 36.0784C59.2434 35.1895 58.4068 34.4052 57.4656 33.6732C50.9297 28.7581 43.8185 29.5947 38.9035 36.183C33.9885 42.7189 33.1519 52.4967 39.6878 57.4117C41.727 58.9281 44.0277 59.8693 46.3806 60.2353C46.3283 60.4967 46.3283 60.8104 46.2761 61.0719C43.4002 86.8496 63.1127 98.4575 61.5963 90.3529C61.178 90.1961 60.9689 90.0392 60.9689 89.9346C46.4852 85.3333 48.7859 69.8562 55.3218 69.0196C57.6748 68.7059 59.4002 69.281 60.7597 70.1176C61.2826 70.6405 61.7532 71.1111 62.2238 71.5817C63.4787 73.1503 64.5767 75.1372 64.5767 75.9215C64.629 75.2941 64.6813 74.5621 64.8382 73.83C71.165 78.5359 76.8643 76.8627 87.2172 60.3398C94.0669 49.4117 98.1454 47.2679 100.394 47.5817C101.283 47.8954 102.119 48.5751 102.904 49.7255C103.113 50.0392 103.322 50.3529 103.479 50.6666C108.08 50.5621 110.224 53.2287 111.322 56C111.322 56 111.322 56 111.322 56.0523C112.211 58.4052 112.315 60.8104 112.42 61.4379C112.42 61.5425 112.42 61.5947 112.472 61.5947C112.368 63.6862 112.106 67.2418 112.054 71.8431C112.054 73.9346 112.263 78.1176 112.106 80.5229C112.054 81.2549 112.002 81.9869 111.949 82.6666C111.897 83.0327 111.897 83.3987 111.845 83.7124C111.792 84.0261 111.792 84.3921 111.74 84.7581C111.688 85.1764 111.636 85.5425 111.636 85.9608C112.681 87.2157 114.198 87.4248 115.453 88.2614C115.766 84.7059 114.825 81.7255 114.459 77.6993C114.773 79.0588 115.191 80.366 115.819 81.7255C117.91 86.2222 116.76 89.5163 116.76 89.5163L120.211 89.7255C120.577 88.732 120.89 86.9019 119.792 84.4967C118.119 80.7843 118.015 79.0588 118.015 79.0588C118.015 79.0588 118.904 82.0915 120.577 84.1307C121.884 85.8039 122.407 88.0523 121.884 89.83L123.139 89.9346C126.904 84.2876 115.243 76.2353 118.747 64.366ZM76.08 68.915C72.1061 71.7908 68.7597 71.2157 66.7205 70.3268C66.7728 70.3268 66.8251 70.2745 66.8251 70.2745C68.08 70.1699 69.3349 69.9085 70.5375 69.4379C76.2891 67.3987 81.6225 62.1176 86.3284 57.2549C82.3545 62.1699 78.5375 67.1372 76.08 68.915Z" fill="black"/>
<path d="M91.3465 82.3528C91.3465 82.3528 86.4315 85.4378 80.889 85.3855C75.3465 85.3332 74.6668 80.9933 74.6145 78.6404C74.6145 78.6404 75.3465 82.0391 78.6929 83.294C81.987 84.5489 91.3465 82.3528 91.3465 82.3528Z" fill="black"/>
<path d="M107.137 81.7778C107.137 81.7778 108.34 83.2419 109.96 84.2876C111.059 85.0197 112.523 84.2354 112.523 82.9282C112.523 82.9282 109.49 83.085 107.137 81.7778Z" fill="black"/>
<path d="M93.1762 68.3922C90.3527 68.1308 83.2416 67.5556 80.5226 67.2942L78.4311 67.1373C76.7056 67.0327 75.3462 68.4968 75.0324 70.17C74.9279 70.6929 74.9279 71.5818 74.9279 72.1046V74.2484C74.9279 75.5556 74.8756 76.9151 75.3462 78.17C76.1828 81.0981 78.8494 83.451 81.9867 83.085C82.3004 83.0327 84.235 82.8236 84.6011 82.7713L88.8363 82.3007C90.1958 82.1961 91.4507 81.8301 92.6533 81.0981C94.3265 80.1046 95.9475 78.5883 95.8429 76.4445L95.9475 74.353C96.052 71.7386 96.7841 68.6537 93.1762 68.3922ZM93.3331 66.6667C95.7906 66.8759 97.4638 69.438 97.3069 71.7909C97.3069 72.1046 97.2024 74.0916 97.1501 74.4576C97.1501 74.8759 97.0455 76.7582 96.9932 77.1242C96.7318 80.6798 92.7579 83.1896 89.5161 83.6602C87.8429 83.8693 84.3396 84.3399 82.6664 84.5491C82.2481 84.6014 81.6729 84.6537 81.2546 84.7059C81.0455 84.7059 80.5749 84.6537 80.3658 84.6537C75.9213 84.0785 73.0978 79.5295 73.2024 75.2942C73.2024 74.6144 73.2024 72.8367 73.2024 72.1046C73.2024 71.7386 73.2024 70.7974 73.2547 70.4314C73.4115 68.6014 74.405 66.8236 76.0782 65.8301C76.8102 65.4118 77.6991 65.2027 78.588 65.255L80.7318 65.4641C83.3462 65.7778 90.5618 66.4576 93.3331 66.6667Z" fill="black"/>
<path d="M105.464 67.5032C106.614 67.3463 112.261 66.7189 113.307 66.6143C113.569 66.6143 114.248 66.5097 114.457 66.5097C116.706 66.196 117.752 68.6535 117.961 70.4836C118.065 72.1045 117.961 73.6731 118.013 75.2417C118.013 76.3398 117.908 77.4378 117.647 78.4836C116.967 81.3071 114.98 84.2875 111.686 83.3463C110.902 83.1894 109.333 82.9803 108.601 82.8234L107.817 82.6666C106.301 82.4051 105.046 81.3594 104.209 80.2091C102.64 78.379 102.954 75.9215 102.797 73.7254C102.588 71.5293 102.64 68.1306 105.464 67.5032ZM105.673 69.0195C104.052 69.7515 104.47 72.2091 104.47 73.6731L104.575 76.8104C104.627 78.7973 106.196 80.7842 108.078 81.3071C108.549 81.4117 109.856 81.6731 110.379 81.7777L111.895 82.0914C115.66 83.294 117.124 78.0653 117.072 75.1895C116.915 72.7842 117.647 69.9084 115.921 67.9738C115.503 67.5555 115.085 67.4509 114.614 67.5555C114.353 67.6077 113.673 67.7123 113.464 67.7646C112.418 67.9738 106.771 68.8627 105.673 69.0195Z" fill="black"/>
<path d="M74.0391 72.366C73.6208 73.3072 73.2548 73.2026 72.5227 73.2026L71.0064 73.1503C69.0718 73.0458 66.928 72.8889 64.9933 72.6275C63.9476 72.4706 62.8495 72.3137 61.8038 72.0523C61.3855 71.9477 61.1241 71.5294 61.2286 71.1111C61.3332 70.7451 61.6469 70.4837 62.0129 70.536L65.0456 70.6928L68.0783 70.7974C69.0718 70.8497 71.6339 70.902 72.6273 70.9543C73.1502 70.9543 73.6208 71.0066 74.1437 70.8497C74.3528 70.7974 74.562 70.902 74.6142 71.1111C74.6665 71.2157 74.6142 71.268 74.6142 71.3726L74.0391 72.366Z" fill="black"/>
<path d="M96.3136 71.2681C98.1959 70.2223 103.163 68.7583 104.104 71.5818C104.523 72.3138 103.425 72.9936 102.954 72.2615C102.954 72.3661 102.693 72.2615 102.588 72.2615C100.601 72.1047 98.562 72.4184 96.575 72.5753C95.7384 72.6798 95.5816 71.5818 96.3136 71.2681Z" fill="black"/>
<path d="M150.693 44.0785C182.431 105.203 126.641 174.17 60.1307 157.333C30.2745 149.909 6.2745 124.026 1.30718 93.6471C-4.33988 63.4249 9.30718 30.9543 34.8235 13.8563C69.8039 -10.196 118.275 -2.19602 143.32 32.2092C143.477 32.3661 143.425 32.6275 143.216 32.7844C143.059 32.9412 142.797 32.889 142.641 32.6798C139.19 28.2354 135.268 24.2092 130.98 20.6014C123.922 14.5883 115.66 9.88241 106.928 6.69287C62.4837 -9.41171 13.6993 17.3595 3.97385 63.8432C-7.00654 115.922 37.281 163.869 90.0915 156.706C130.824 151.582 161.098 113.987 157.752 73.0981C157.02 63.2157 154.405 53.438 150.065 44.4445C149.961 44.2876 150.065 44.0785 150.222 43.9739C150.379 43.8693 150.588 43.9216 150.693 44.0785Z" fill="white"/>
</g>
<defs>
<linearGradient id="paint0_linear_805_4132" x1="37.6141" y1="146.893" x2="121.987" y2="146.893" gradientUnits="userSpaceOnUse">
<stop stop-color="#9955E8"/>
<stop offset="1" stop-color="#7BFFAF"/>
</linearGradient>
</defs>
</svg>
