<svg width="313" height="253" viewBox="0 0 313 253" fill="none" xmlns="http://www.w3.org/2000/svg">
<path d="M170.612 213.689L223.463 234.797L284.782 173.587L244.608 167.786L170.612 213.689Z" fill="url(#paint0_linear_805_3869)"/>
<path opacity="0.5" d="M170.612 213.689L223.463 234.797L284.782 173.587L244.608 167.786L170.612 213.689Z" fill="white"/>
<path d="M105.599 241.659C98.5928 241.659 92.9133 237.878 92.9133 233.214C92.9133 228.55 98.5928 224.769 105.599 224.769C112.605 224.769 118.284 228.55 118.284 233.214C118.284 237.878 112.605 241.659 105.599 241.659Z" fill="url(#paint1_linear_805_3869)"/>
<path opacity="0.5" d="M105.599 241.659C98.5928 241.659 92.9133 237.878 92.9133 233.214C92.9133 228.55 98.5928 224.769 105.599 224.769C112.605 224.769 118.284 228.55 118.284 233.214C118.284 237.878 112.605 241.659 105.599 241.659Z" fill="white"/>
<path d="M155.278 185.269L77.8332 191.395L95.0221 182.562L155.278 185.269Z" fill="url(#paint2_linear_805_3869)"/>
<path opacity="0.5" d="M155.278 185.269L77.8332 191.395L95.0221 182.562L155.278 185.269Z" fill="white"/>
<path d="M137.836 161.455L160.813 159.579L157.927 156.175H144.71L137.836 161.455Z" fill="url(#paint3_linear_805_3869)"/>
<path opacity="0.5" d="M137.836 161.455L160.813 159.579L157.927 156.175H144.71L137.836 161.455Z" fill="white"/>
<path d="M63.3325 253C54.4305 253 47.214 248.631 47.214 243.242C47.214 237.852 54.4305 233.483 63.3325 233.483C72.2345 233.483 79.451 237.852 79.451 243.242C79.451 248.631 72.2345 253 63.3325 253Z" fill="url(#paint4_linear_805_3869)"/>
<path opacity="0.5" d="M63.3325 253C54.4305 253 47.214 248.631 47.214 243.242C47.214 237.852 54.4305 233.483 63.3325 233.483C72.2345 233.483 79.451 237.852 79.451 243.242C79.451 248.631 72.2345 253 63.3325 253Z" fill="white"/>
<path d="M158.847 220.583L167.528 234.821L148.302 238.54L140.857 224.302L158.847 220.583Z" fill="white" stroke="black" stroke-width="0.538765" stroke-linecap="round" stroke-linejoin="round"/>
<path d="M143.957 204.493L152.638 217.488L134.657 223.06L127.212 210.064L143.957 204.493Z" fill="url(#paint5_linear_805_3869)"/>
<mask id="mask0_805_3869" style="mask-type:luminance" maskUnits="userSpaceOnUse" x="127" y="204" width="26" height="20">
<path d="M143.957 204.493L152.638 217.488L134.657 223.06L127.212 210.064L143.957 204.493Z" fill="white"/>
</mask>
<g mask="url(#mask0_805_3869)">
<path opacity="0.5" d="M143.957 204.493L152.638 217.488L134.657 223.06L127.212 210.064L143.957 204.493Z" fill="white" stroke="black" stroke-width="0.538765" stroke-miterlimit="10"/>
</g>
<path d="M143.957 204.493L152.638 217.488L134.657 223.06L127.212 210.064L143.957 204.493Z" stroke="black" stroke-width="0.538765" stroke-linecap="round" stroke-linejoin="round"/>
<path d="M124.731 229.257L140.239 233.586L134.039 243.495L116.049 239.158L124.731 229.257Z" fill="url(#paint6_linear_805_3869)" stroke="black" stroke-width="0.538765" stroke-linecap="round" stroke-linejoin="round"/>
<path d="M80.4893 226.716L78.9037 238.738C78.9037 243.716 72.8384 247.761 65.354 247.761C57.8695 247.761 51.7963 243.716 51.7963 238.738L50.1631 226.716H80.4893Z" fill="url(#paint7_linear_805_3869)" stroke="black" stroke-width="0.538765" stroke-linecap="round" stroke-linejoin="round"/>
<path d="M65.3382 236.823C56.9529 236.823 50.1552 232.298 50.1552 226.716C50.1552 221.135 56.9529 216.61 65.3382 216.61C73.7235 216.61 80.5212 221.135 80.5212 226.716C80.5212 232.298 73.7235 236.823 65.3382 236.823Z" fill="url(#paint8_linear_805_3869)" stroke="black" stroke-width="0.538765" stroke-linecap="round" stroke-linejoin="round"/>
<path d="M65.3381 235.311C58.2051 235.311 52.4227 231.463 52.4227 226.716C52.4227 221.969 58.2051 218.121 65.3381 218.121C72.4711 218.121 78.2535 221.969 78.2535 226.716C78.2535 231.463 72.4711 235.311 65.3381 235.311Z" fill="url(#paint9_linear_805_3869)" stroke="black" stroke-width="0.538765" stroke-linecap="round" stroke-linejoin="round"/>
<path d="M65.3384 235.319C58.3281 235.319 52.645 232.166 52.645 228.275C52.645 224.385 58.3281 221.232 65.3384 221.232C72.3488 221.232 78.0319 224.385 78.0319 228.275C78.0319 232.166 72.3488 235.319 65.3384 235.319Z" fill="black" stroke="black" stroke-width="0.538765" stroke-linecap="round" stroke-linejoin="round"/>
<path d="M60.7635 203.646C62.9676 202.229 66.3134 202.356 67.6533 204.976C69.6354 208.79 68.2163 215.858 68.9298 216.847C69.6434 217.836 71.7603 218.121 72.7513 216C73.7424 213.879 73.7424 211.054 75.0189 210.911C76.2953 210.769 77.992 211.339 78.2774 214.591C78.5629 217.844 77.992 221.517 75.7245 223.21C73.4569 224.904 70.9119 224.342 70.1746 225.054C69.4372 225.767 70.1746 226.875 70.1746 227.603C70.1746 230.768 66.028 232.351 63.4037 231.56C59.5822 230.428 60.0024 226.605 59.4395 225.054C58.8766 223.503 55.7527 223.353 54.619 220.955C53.4852 218.557 51.7885 213.737 54.1988 211.901C56.609 210.064 58.4484 210.911 58.7259 212.89C59.0558 214.461 59.5889 215.983 60.3116 217.417C58.6149 214.069 56.9499 206.099 60.7635 203.646Z" fill="url(#paint10_linear_805_3869)"/>
<mask id="mask1_805_3869" style="mask-type:luminance" maskUnits="userSpaceOnUse" x="52" y="202" width="27" height="30">
<path d="M60.7635 203.646C62.9676 202.229 66.3134 202.356 67.6533 204.976C69.6354 208.79 68.2163 215.858 68.9298 216.847C69.6434 217.836 71.7603 218.121 72.7513 216C73.7424 213.879 73.7424 211.054 75.0189 210.911C76.2953 210.769 77.992 211.339 78.2774 214.591C78.5629 217.844 77.992 221.517 75.7245 223.21C73.4569 224.904 70.9119 224.342 70.1746 225.054C69.4372 225.767 70.1746 226.875 70.1746 227.603C70.1746 230.768 66.028 232.351 63.4037 231.56C59.5822 230.428 60.0024 226.605 59.4395 225.054C58.8766 223.503 55.7527 223.353 54.619 220.955C53.4852 218.557 51.7885 213.737 54.1988 211.901C56.609 210.064 58.4484 210.911 58.7259 212.89C59.0558 214.461 59.5889 215.983 60.3116 217.417C58.6149 214.069 56.9499 206.099 60.7635 203.646Z" fill="white"/>
</mask>
<g mask="url(#mask1_805_3869)">
<path opacity="0.2" d="M60.7635 203.646C62.9676 202.229 66.3134 202.356 67.6533 204.976C69.6354 208.79 68.2163 215.858 68.9298 216.847C69.6434 217.836 71.7603 218.121 72.7513 216C73.7424 213.879 73.7424 211.054 75.0189 210.911C76.2953 210.769 77.992 211.339 78.2774 214.591C78.5629 217.844 77.992 221.517 75.7245 223.21C73.4569 224.904 70.9119 224.342 70.1746 225.054C69.4372 225.767 70.1746 226.875 70.1746 227.603C70.1746 230.768 66.028 232.351 63.4037 231.56C59.5822 230.428 60.0024 226.605 59.4395 225.054C58.8766 223.503 55.7527 223.353 54.619 220.955C53.4852 218.557 51.7885 213.737 54.1988 211.901C56.609 210.064 58.4484 210.911 58.7259 212.89C59.0558 214.461 59.5889 215.983 60.3116 217.417C58.6149 214.069 56.9499 206.099 60.7635 203.646Z" fill="url(#paint11_linear_805_3869)"/>
</g>
<path d="M60.7635 203.646C62.9676 202.229 66.3134 202.356 67.6533 204.976C69.6354 208.79 68.2163 215.858 68.9298 216.847C69.6434 217.836 71.7602 218.121 72.7513 216C73.7424 213.879 73.7424 211.054 75.0189 210.911C76.2953 210.769 77.992 211.339 78.2774 214.591C78.5629 217.844 77.992 221.517 75.7245 223.21C73.4569 224.904 70.9119 224.342 70.1746 225.054C69.4372 225.767 70.1746 226.875 70.1746 227.603C70.1746 230.768 66.028 232.351 63.4037 231.56C59.5822 230.428 60.0024 226.605 59.4395 225.054C58.8766 223.503 55.7527 223.353 54.619 220.955C53.4852 218.557 51.7885 213.737 54.1988 211.901C56.609 210.064 58.4484 210.911 58.7259 212.89C59.0558 214.461 59.5889 215.983 60.3116 217.417C58.6149 214.069 56.9499 206.099 60.7635 203.646Z" stroke="black" stroke-width="0.538765" stroke-linecap="round" stroke-linejoin="round"/>
<path d="M64.2525 204.691C64.8956 205.113 65.434 205.676 65.8268 206.337C66.2197 206.998 66.4567 207.74 66.52 208.506C66.6627 211.054 66.52 219.111 67.5111 220.243C68.5021 221.374 71.7607 221.089 73.8538 219.111C75.9469 217.132 75.0193 212.898 75.0193 212.898" stroke="black" stroke-width="0.269382" stroke-linecap="round" stroke-linejoin="round"/>
<path d="M74.3925 221.604C73.6582 222.174 72.8089 222.579 71.903 222.791C69.35 223.353 67.5106 222.086 67.0825 223.353C66.6543 224.619 67.5106 229.155 67.5106 229.155" stroke="black" stroke-width="0.269382" stroke-linecap="round" stroke-linejoin="round"/>
<path d="M75.8672 220.1C75.6032 220.472 75.3002 220.814 74.9634 221.122" stroke="black" stroke-width="0.269382" stroke-linecap="round" stroke-linejoin="round"/>
<path d="M64.2997 226.835C64.1567 224.727 64.1408 222.613 64.2521 220.504C64.5059 217.338 63.0312 211.457 62.6665 208.798" stroke="black" stroke-width="0.269382" stroke-linecap="round" stroke-linejoin="round"/>
<path d="M64.5376 230.144C64.5376 230.144 64.4583 229.281 64.3711 228.014" stroke="black" stroke-width="0.269382" stroke-linecap="round" stroke-linejoin="round"/>
<path d="M54.7301 215.977C54.6588 215.288 54.6191 214.869 54.6191 214.869" stroke="black" stroke-width="0.269382" stroke-linecap="round" stroke-linejoin="round"/>
<path d="M61.4214 227.596C61.4214 227.596 60.8506 222.934 59.7168 222.055C58.583 221.177 55.3324 220.638 55.0469 218.517C54.9994 218.185 54.9597 217.868 54.9201 217.575" stroke="black" stroke-width="0.269382" stroke-linecap="round" stroke-linejoin="round"/>
<path d="M56.601 213.032C56.8981 213.231 57.135 213.507 57.286 213.831C57.4369 214.155 57.4962 214.514 57.4573 214.869C57.3991 215.716 57.58 216.563 57.9794 217.313C58.3788 218.062 58.9807 218.686 59.7169 219.111" stroke="black" stroke-width="0.269382" stroke-linecap="round" stroke-linejoin="round"/>
<path d="M62.5077 207.184C62.4652 206.392 62.4811 205.599 62.5552 204.809" stroke="black" stroke-width="0.269382" stroke-linecap="round" stroke-linejoin="round"/>
<path d="M116.501 204.081L114.399 226.162V228.497C114.399 231.663 109.944 234.172 104.441 234.172C98.939 234.172 94.4832 231.631 94.4832 228.497V226.162L92.5725 203.852L116.501 204.081Z" fill="white" stroke="black" stroke-width="0.538765" stroke-linecap="round" stroke-linejoin="round"/>
<path d="M94.3883 224.967L93.2862 212.106C94.7688 214.409 99.1929 216.064 104.426 216.064C109.936 216.064 114.542 214.212 115.771 211.719L114.519 224.888C112.489 226.574 108.739 227.714 104.426 227.714C100.113 227.714 96.4179 226.629 94.3883 224.967Z" fill="url(#paint12_linear_805_3869)" stroke="black" stroke-width="0.538765" stroke-linecap="round" stroke-linejoin="round"/>
<path d="M116.105 208.245V208.094L116.208 207.207L116.105 208.245Z" fill="white" stroke="black" stroke-width="0.538765" stroke-linecap="round" stroke-linejoin="round"/>
<path d="M92.192 200.805C94.3009 198.145 98.9866 196.286 104.441 196.286C109.896 196.286 114.582 198.145 116.699 200.805H117.896V203.97C117.896 208.213 111.87 211.647 104.418 211.647C96.9649 211.647 90.9393 208.213 90.9393 203.97V200.805H92.192Z" fill="url(#paint13_linear_805_3869)" stroke="black" stroke-width="0.538765" stroke-linecap="round" stroke-linejoin="round"/>
<path opacity="0.2" d="M92.192 200.805C94.3009 198.145 98.9866 196.286 104.441 196.286C109.896 196.286 114.582 198.145 116.699 200.805H117.896V203.97C117.896 208.213 111.87 211.647 104.418 211.647C96.9649 211.647 90.9393 208.213 90.9393 203.97V200.805H92.192Z" fill="url(#paint14_linear_805_3869)"/>
<path d="M104.441 208.482C97.0106 208.482 90.9868 205.045 90.9868 200.805C90.9868 196.565 97.0106 193.128 104.441 193.128C111.872 193.128 117.896 196.565 117.896 200.805C117.896 205.045 111.872 208.482 104.441 208.482Z" fill="white" stroke="black" stroke-width="0.538765" stroke-linecap="round" stroke-linejoin="round"/>
<path d="M93.7382 196.523C95.5855 194.196 99.6766 192.566 104.442 192.566C109.207 192.566 113.298 194.188 115.145 196.523H116.168V199.277C116.168 202.981 110.911 205.981 104.418 205.981C97.9244 205.981 92.6678 202.981 92.6678 199.277V196.523H93.7382Z" fill="url(#paint15_linear_805_3869)" stroke="black" stroke-width="0.538765" stroke-linecap="round" stroke-linejoin="round"/>
<path d="M104.441 203.226C97.9521 203.226 92.6915 200.225 92.6915 196.523C92.6915 192.821 97.9521 189.82 104.441 189.82C110.931 189.82 116.191 192.821 116.191 196.523C116.191 200.225 110.931 203.226 104.441 203.226Z" fill="white" stroke="black" stroke-width="0.538765" stroke-linecap="round" stroke-linejoin="round"/>
<path d="M223.034 131.427C223.034 131.427 222.115 130.818 216.279 133.264C210.444 135.709 208.153 135.179 202.476 134.182C195.657 132.994 189.997 131.807 189.315 134.562C188.133 139.311 192.906 139.255 201.493 140.174C210.079 141.092 215.058 138.472 217.817 137.245C219.087 136.724 220.317 136.111 221.496 135.409L223.034 131.427Z" fill="white" stroke="black" stroke-width="0.538765" stroke-linecap="round" stroke-linejoin="round"/>
<path d="M236.227 133.881C236.227 133.881 228.553 142.761 225.183 140.307C221.813 137.854 222.115 129.9 225.183 127.446C228.251 124.993 236.838 129.591 236.227 133.881Z" fill="white" stroke="black" stroke-width="0.538765" stroke-linecap="round" stroke-linejoin="round"/>
<path d="M212.894 109.378C212.894 109.378 212.585 117.648 214.734 123.157C216.882 128.665 220.87 132.345 221.481 135.408C222.091 138.471 221.79 142.761 224.858 143.987C227.927 145.214 227.927 143.069 227.617 140.616C227.308 138.162 226.698 128.982 226.698 128.982L236.838 135.1C236.838 135.1 234.079 142.761 239.906 143.679C245.734 144.597 252.79 135.717 253.71 129.005C254.63 122.294 250.951 107.257 244.505 103.276C238.059 99.2949 229.782 99.9122 225.477 99.9122C221.172 99.9122 214.749 102.951 212.894 109.378Z" fill="white" stroke="black" stroke-width="0.538765" stroke-linecap="round" stroke-linejoin="round"/>
<path d="M237.353 100.878C237.353 100.878 238.939 101.669 241.706 106.014C244.473 110.359 238.939 114.103 235.966 112.132C232.993 110.161 235.577 106.014 233.397 104.036C232.143 102.973 231.301 101.506 231.019 99.8885L237.353 100.878Z" fill="black"/>
<path d="M246.249 106.996C246.958 107.501 247.553 108.149 247.997 108.897C248.441 109.645 248.723 110.478 248.826 111.341C249.024 114.104 244.069 108.967 243.482 106.592C242.895 104.218 246.249 106.996 246.249 106.996Z" fill="black"/>
<path d="M228.553 100.807C229.257 102.082 229.6 103.525 229.545 104.981C229.491 106.436 229.041 107.849 228.244 109.069C225.485 113.359 219.348 115.195 216.898 112.132C214.448 109.069 213.521 107.542 214.44 106.014C215.36 104.487 224.256 98.3531 228.553 100.807Z" fill="url(#paint16_linear_805_3869)" stroke="black" stroke-width="0.538765" stroke-linecap="round" stroke-linejoin="round"/>
<path d="M205.854 85.8009C207.018 85.9272 208.196 85.8009 209.307 85.4308C210.418 85.0606 211.436 84.4553 212.291 83.6561C215.36 80.9019 218.127 74.7762 219.348 75.077C220.569 75.3777 224.898 84.2656 224.898 84.2656C224.898 84.2656 232.263 84.8829 232.874 87.0198C233.484 89.1566 230.115 99.2712 227.324 103.561C226.022 105.471 224.29 107.051 222.266 108.171C220.241 109.291 217.982 109.921 215.669 110.011C211.99 110.011 200.946 110.929 199.408 107.249C197.87 103.569 199.106 92.5519 199.106 92.5519C199.106 92.5519 194.191 87.6529 196.339 86.7348C198.488 85.8168 205.854 85.8009 205.854 85.8009Z" fill="white" stroke="black" stroke-width="0.538765" stroke-linecap="round" stroke-linejoin="round"/>
<path d="M207.345 101.123C207.717 100.641 208.074 100.15 208.423 99.6433C209.002 98.7884 210.373 97.4825 213.013 98.3135C216.771 99.4929 219.356 103.063 215.186 106.015C211.261 108.825 203.38 106.292 207.345 101.123Z" fill="black"/>
<path d="M224.874 84.2655C224.874 84.2655 220.577 86.719 218.127 85.8009C215.677 84.8828 217.207 74.4675 219.348 75.0769C221.489 75.6863 225.183 80.2846 224.874 84.2655Z" fill="white" stroke="black" stroke-width="0.538765" stroke-linecap="round" stroke-linejoin="round"/>
<path d="M196.34 86.7189C196.34 86.7189 200.304 86.4102 202.785 89.1647C205.267 91.9192 203.705 94.7053 200.328 95.291C196.95 95.8767 195.119 86.7189 196.34 86.7189Z" fill="white" stroke="black" stroke-width="0.538765" stroke-linecap="round" stroke-linejoin="round"/>
<path d="M220.268 103.87C220.268 103.87 224.232 100.806 223.336 103.252C222.44 105.698 220.886 106.015 219.372 105.397C217.857 104.78 220.268 103.87 220.268 103.87Z" fill="url(#paint17_linear_805_3869)" stroke="black" stroke-width="0.538765" stroke-linecap="round" stroke-linejoin="round"/>
<path d="M222.456 96.1926C222.686 96.9842 223.336 97.5382 223.907 97.3799C224.478 97.2216 224.755 96.4301 224.525 95.6148C224.295 94.7996 223.645 94.2693 223.074 94.4276C222.503 94.5859 222.226 95.3853 222.456 96.1926Z" fill="black"/>
<path d="M212.998 103.419C213.735 103.846 214.583 103.783 214.869 103.268C215.154 102.754 214.821 102.002 214.076 101.574C213.803 101.358 213.459 101.253 213.112 101.279C212.765 101.305 212.441 101.462 212.205 101.717C211.919 102.231 212.268 102.991 212.998 103.419Z" fill="white"/>
<path d="M240.517 122.856C240.517 122.856 241.437 129.591 240.216 132.353C238.995 135.115 237.758 145.523 235.3 145.808C232.842 146.093 233.77 140.268 233.77 139.373C233.77 138.479 233.461 128.657 233.461 128.657C233.461 128.657 231.312 124.059 230.091 121.613" fill="white"/>
<path d="M240.517 122.856C240.517 122.856 241.437 129.591 240.216 132.353C238.995 135.115 237.758 145.523 235.3 145.808C232.842 146.093 233.77 140.268 233.77 139.373C233.77 138.479 233.461 128.657 233.461 128.657C233.461 128.657 231.312 124.059 230.091 121.613" stroke="black" stroke-width="0.538765" stroke-linecap="round" stroke-linejoin="round"/>
<path d="M250.642 122.547C250.642 122.547 242.356 120.094 241.437 129.283" stroke="black" stroke-width="0.538765" stroke-linecap="round" stroke-linejoin="round"/>
<path d="M226.714 129.005C226.714 129.005 219.657 125.325 219.348 117.363" stroke="black" stroke-width="0.538765" stroke-linecap="round" stroke-linejoin="round"/>
<path d="M312 141.535L306.775 140.355" stroke="black" stroke-width="0.538765" stroke-linecap="round" stroke-linejoin="round"/>
<path d="M268.393 172.313L226.262 160.386C224.923 160.244 223.575 160.568 222.448 161.304L153.891 205.031C153.599 205.219 153.372 205.493 153.241 205.814C153.109 206.136 153.08 206.49 153.157 206.828C153.234 207.167 153.414 207.474 153.671 207.707C153.929 207.94 154.252 208.089 154.597 208.133L212.252 226.059L268.393 172.313Z" fill="url(#paint18_linear_805_3869)" stroke="black" stroke-width="0.538765" stroke-linecap="round" stroke-linejoin="round"/>
<path d="M243.76 174.83L237.79 178.938L230.892 176.991L236.854 172.891L243.76 174.83Z" fill="black"/>
<path d="M240.042 186.314L246.004 182.206L252.909 184.153L246.939 188.261L240.042 186.314Z" fill="black"/>
<path d="M228.759 177.347L222.797 181.447L215.899 179.5L221.861 175.399L228.759 177.347Z" fill="black"/>
<path d="M221.806 182.127L215.844 186.227L208.946 184.28L214.909 180.18L221.806 182.127Z" fill="black"/>
<path d="M236.807 179.61L230.844 183.718L223.947 181.771L229.909 177.671L236.807 179.61Z" fill="black"/>
<path d="M251.807 177.101L245.845 181.209L238.94 179.262L244.91 175.154L251.807 177.101Z" fill="black"/>
<path d="M204.197 203.164L210.167 199.056L217.057 201.003L211.095 205.111L204.197 203.164Z" fill="black"/>
<path d="M212.252 205.435L218.215 201.327L225.112 203.274L219.142 207.374L212.252 205.435Z" fill="black"/>
<path d="M233.096 191.094L239.058 186.986L245.956 188.933L239.994 193.033L233.096 191.094Z" fill="black"/>
<path d="M197.251 207.944L203.214 203.844L210.111 205.783L204.149 209.891L197.251 207.944Z" fill="black"/>
<path d="M226.143 195.874L232.113 191.766L239.01 193.714L233.04 197.814L226.143 195.874Z" fill="black"/>
<path d="M219.198 200.655L225.16 196.547L232.058 198.494L226.095 202.602L219.198 200.655Z" fill="black"/>
<path d="M214.861 186.907L208.899 191.007L202.001 189.06L207.963 184.96L214.861 186.907Z" fill="black"/>
<path d="M244.854 181.882L238.892 185.99L231.994 184.042L237.956 179.942L244.854 181.882Z" fill="black"/>
<path d="M189.204 205.672L195.166 201.572L202.064 203.519L196.102 207.62L189.204 205.672Z" fill="black"/>
<path d="M210.048 191.332L216.011 187.231L222.908 189.171L216.946 193.279L210.048 191.332Z" fill="black"/>
<path d="M225.049 188.823L231.011 184.715L237.909 186.662L231.946 190.77L225.049 188.823Z" fill="black"/>
<path d="M253.94 176.753L257.429 174.347L262.146 175.669L259.387 178.289L253.94 176.753Z" fill="black"/>
<path d="M246.995 181.534L252.957 177.426L258.61 179.025L253.94 183.441L253.892 183.473L246.995 181.534Z" fill="black"/>
<path d="M229.861 184.398L223.891 188.498L216.993 186.551L222.963 182.451L229.861 184.398Z" fill="black"/>
<path d="M218.096 193.603L224.058 189.503L230.956 191.442L224.993 195.55L218.096 193.603Z" fill="black"/>
<path d="M188.102 198.621L194.064 194.521L200.962 196.468L195 200.568L188.102 198.621Z" fill="black"/>
<path d="M207.916 191.688L201.945 195.788L195.048 193.84L201.01 189.74L207.916 191.688Z" fill="black"/>
<path d="M196.149 200.892L202.112 196.792L209.009 198.739L203.047 202.839L196.149 200.892Z" fill="black"/>
<path d="M203.103 196.112L209.065 192.012L215.963 193.951L209.993 198.059L203.103 196.112Z" fill="black"/>
<path d="M211.15 198.383L217.113 194.283L224.01 196.222L218.048 200.33L211.15 198.383Z" fill="black"/>
<path d="M241.143 193.358L247.105 189.258L247.637 189.408L242.935 193.864L241.143 193.358Z" fill="black"/>
<path d="M188.213 206.353L195.111 208.3L187.96 213.215L181.236 211.149L188.213 206.353Z" fill="black"/>
<path d="M196.268 208.624L203.166 210.563L195.8 215.629L189.085 213.563L196.268 208.624Z" fill="black"/>
<path d="M227.245 202.918L233.207 198.818L236.672 199.792L231.962 204.256L227.245 202.918Z" fill="black"/>
<path d="M181.149 203.401L187.119 199.301L194.017 201.248L188.047 205.348L181.149 203.401Z" fill="black"/>
<path d="M220.3 207.706L226.262 203.598L231.185 204.992L226.484 209.448L220.3 207.706Z" fill="black"/>
<path d="M213.346 212.487L219.308 208.379L225.707 210.183L220.997 214.64L213.346 212.487Z" fill="black"/>
<path d="M205.299 210.215L211.261 206.107L218.159 208.054L212.197 212.162L205.299 210.215Z" fill="black"/>
<path d="M166.338 203.773L170.303 201.295L179.024 203.757L172.285 208.395L167.036 206.812C166.69 206.782 166.363 206.643 166.101 206.416C165.84 206.188 165.657 205.884 165.579 205.546C165.502 205.208 165.533 204.855 165.67 204.536C165.806 204.217 166.04 203.95 166.338 203.773Z" fill="black"/>
<path d="M212.363 213.159L220.22 215.375L214.036 221.232L204.768 218.383L212.363 213.159Z" fill="black"/>
<path d="M177.661 196.634L185.962 198.977L180 203.077L171.318 200.631L177.661 196.634Z" fill="black"/>
<path d="M180.166 204.081L187.064 206.028L180.118 210.809L173.395 208.743L180.166 204.081Z" fill="black"/>
<path d="M228.64 169.614L223.003 168.024L226.642 165.728L232.081 167.248L228.64 169.614Z" fill="black"/>
<path d="M196.926 215.977L204.316 210.888L211.213 212.835L203.65 218.043L196.926 215.977Z" fill="black"/>
<path d="M227.657 170.295L221.695 174.395L215.614 172.685L221.957 168.688L227.657 170.295Z" fill="black"/>
<path d="M213.759 179.856L207.797 183.956L200.851 182.001L207.186 178.003L213.759 179.856Z" fill="black"/>
<path d="M220.712 175.075L214.742 179.175L208.232 177.339L214.575 173.342L220.712 175.075Z" fill="black"/>
<path d="M206.814 184.636L200.851 188.736L193.47 186.662L199.805 182.657L206.814 184.636Z" fill="black"/>
<path d="M199.86 189.416L193.898 193.516L186.088 191.316L192.423 187.319L199.86 189.416Z" fill="black"/>
<path d="M185.042 191.972L192.915 194.196L186.952 198.296L178.707 195.977L185.042 191.972Z" fill="black"/>
<path d="M235.705 172.566L229.742 176.666L222.845 174.719L228.807 170.619L235.705 172.566Z" fill="black"/>
<path d="M249.635 187.524L248.414 188.673L248.096 188.578L249.635 187.524Z" fill="black"/>
<path d="M252.791 176.429L245.893 174.482L249.365 172.091L256.279 174.023L252.791 176.429Z" fill="black"/>
<path d="M244.743 174.157L237.845 172.21L241.302 169.828L248.215 171.767L244.743 174.157Z" fill="black"/>
<path d="M240.144 169.511L236.688 171.886L229.79 169.939L233.239 167.572L240.144 169.511Z" fill="black"/>
<path d="M234.198 198.146L240.161 194.038L242.159 194.6L237.449 199.056L234.198 198.146Z" fill="black"/>
<path d="M212.292 226.059L230.527 152.369C230.943 150.693 231.838 149.175 233.104 148L282.26 102.247C282.469 102.053 282.735 101.932 283.018 101.9C283.302 101.868 283.588 101.928 283.834 102.071C284.081 102.213 284.276 102.431 284.389 102.692C284.502 102.953 284.529 103.244 284.465 103.521L268.394 172.313L212.292 226.059Z" fill="url(#paint19_linear_805_3869)" stroke="black" stroke-width="0.538765" stroke-linecap="round" stroke-linejoin="round"/>
<path d="M239.852 144.985L234.23 149.891C234.23 149.891 232.478 150.24 230.726 159.001" stroke="black" stroke-width="0.269382" stroke-linecap="round" stroke-linejoin="round"/>
<path d="M229.671 163.552L219.309 208.379" stroke="black" stroke-width="0.269382" stroke-linecap="round" stroke-linejoin="round"/>
<path d="M260.013 142.982C257.579 148.886 257.801 154.577 260.513 155.693C263.224 156.809 267.403 152.923 269.837 146.987C272.271 141.051 272.049 135.392 269.337 134.284C266.626 133.176 262.447 137.078 260.013 142.982Z" fill="url(#paint20_linear_805_3869)"/>
<path opacity="0.6" d="M260.013 142.982C257.579 148.886 257.801 154.577 260.513 155.693C263.224 156.809 267.403 152.923 269.837 146.987C272.271 141.051 272.049 135.392 269.337 134.284C266.626 133.176 262.447 137.078 260.013 142.982Z" fill="white"/>
<path d="M261.79 152.603C259.862 151.811 259.704 147.765 261.436 143.565C263.169 139.366 266.135 136.604 268.062 137.396C269.99 138.188 270.148 142.235 268.416 146.434C266.683 150.633 263.717 153.396 261.79 152.603Z" stroke="black" stroke-width="0.538765" stroke-miterlimit="10"/>
<path d="M256.255 167.192C254.987 170.255 255.51 173.373 257.413 174.157C259.316 174.94 261.885 173.089 263.153 170.034C264.422 166.979 263.89 163.852 261.988 163.069C260.085 162.285 257.516 164.137 256.255 167.192Z" fill="black"/>
<path d="M258.879 172.377C260.076 172.377 261.377 171.293 262.051 169.599C262.43 168.728 262.562 167.769 262.431 166.828C262.396 166.436 262.26 166.06 262.034 165.736C261.809 165.413 261.503 165.153 261.147 164.984C259.807 164.43 258.094 165.594 257.254 167.628C256.421 169.662 256.818 171.688 258.158 172.242C258.387 172.333 258.632 172.379 258.879 172.377ZM260.465 165.641C260.601 165.64 260.736 165.667 260.861 165.72C261.089 165.842 261.282 166.02 261.421 166.238C261.56 166.456 261.64 166.705 261.654 166.963C261.768 167.77 261.652 168.593 261.321 169.338C260.679 170.921 259.371 171.918 258.467 171.546C257.563 171.174 257.349 169.535 257.999 167.968C258.594 166.583 259.672 165.641 260.465 165.641Z" fill="url(#paint21_linear_805_3869)"/>
<g opacity="0.5">
<path d="M258.879 172.377C260.076 172.377 261.377 171.293 262.051 169.599C262.43 168.728 262.562 167.769 262.431 166.828C262.396 166.436 262.26 166.06 262.034 165.736C261.809 165.413 261.503 165.153 261.147 164.984C259.807 164.43 258.094 165.594 257.254 167.628C256.421 169.662 256.818 171.688 258.158 172.242C258.387 172.333 258.632 172.379 258.879 172.377ZM260.465 165.641C260.601 165.64 260.736 165.667 260.861 165.72C261.089 165.842 261.282 166.02 261.421 166.238C261.56 166.456 261.64 166.705 261.654 166.963C261.768 167.77 261.652 168.593 261.321 169.338C260.679 170.921 259.371 171.918 258.467 171.546C257.563 171.174 257.349 169.535 257.999 167.968C258.594 166.583 259.672 165.641 260.465 165.641Z" fill="white"/>
</g>
<path d="M242.119 168.174L246.63 175.297C246.746 175.47 246.808 175.674 246.808 175.882C246.808 176.091 246.746 176.295 246.63 176.468L236.973 190.524C236.888 190.649 236.779 190.754 236.65 190.834C236.522 190.914 236.379 190.966 236.229 190.987C236.08 191.008 235.928 190.997 235.783 190.955C235.638 190.914 235.503 190.842 235.387 190.746L230.384 186.67C230.185 186.509 230.05 186.282 230.005 186.031C229.96 185.779 230.007 185.52 230.139 185.3L240.295 168.213C240.386 168.054 240.517 167.921 240.674 167.827C240.832 167.733 241.012 167.681 241.196 167.677C241.379 167.673 241.561 167.717 241.723 167.804C241.884 167.891 242.021 168.018 242.119 168.174Z" fill="black"/>
<path d="M249.968 177.616C249.968 177.616 237.472 175.542 228.886 193.112L226.753 190.492C226.753 190.492 235.023 176.745 241.762 175.518C248.501 174.291 250.951 174.284 250.951 174.284L249.968 177.616Z" fill="url(#paint22_linear_805_3869)"/>
<path opacity="0.5" d="M249.968 177.616C249.968 177.616 237.472 175.542 228.886 193.112L226.753 190.492C226.753 190.492 235.023 176.745 241.762 175.518C248.501 174.291 250.951 174.284 250.951 174.284L249.968 177.616Z" fill="white"/>
<path d="M303.858 139.698L283.466 135.1" stroke="black" stroke-width="0.538765" stroke-linecap="round" stroke-linejoin="round"/>
<path d="M174.386 184.018C176.831 184.403 179.295 184.649 181.767 184.754C185.597 184.905 187.222 184.905 186.635 185.791C186.049 186.678 181.466 187.556 179.849 187.849C178.231 188.142 174.386 184.018 174.386 184.018Z" fill="white" stroke="black" stroke-width="0.538765" stroke-miterlimit="10"/>
<path d="M30.5959 216.032L37.4223 212.47" stroke="black" stroke-width="0.538765" stroke-linecap="round" stroke-linejoin="round"/>
<path d="M166.957 132.852C166.957 132.852 165.522 130.343 164.919 133.453L166.957 132.852Z" fill="black"/>
<path d="M41.6484 210.262L208.082 123.465" stroke="black" stroke-width="0.538765" stroke-linecap="round" stroke-linejoin="round"/>
<path d="M203.705 157.458L168.733 179.966L139.969 168.253L178.715 148.594L203.705 157.458Z" fill="black" stroke="black" stroke-width="0.538765" stroke-linecap="round" stroke-linejoin="round"/>
<path d="M181.229 152.764L195.167 157.68" stroke="white" stroke-width="0.269382" stroke-linecap="round" stroke-linejoin="round"/>
<path d="M192.978 159.317L167.829 175.146L147.334 167.232" stroke="white" stroke-width="0.269382" stroke-linecap="round" stroke-linejoin="round"/>
<path d="M59.6057 51.0963C59.6057 51.0963 39.5785 54.262 33.1326 64.9781C26.6868 75.6942 31.2933 92.536 33.4419 98.353C35.3843 103.632 29.6441 108.04 26.116 110.905C18.1875 117.332 14.1044 126.402 18.2272 136.271C20.796 142.412 32.2209 145.167 30.6748 152.559C29.1288 159.951 22.3975 170.318 30.984 177.98C40.0462 186.052 53.6435 181.889 61.5878 174.347C70.5232 165.863 73.5994 151.102 69.0247 139.698C63.4748 125.919 60.4382 117.039 65.6551 111.206C70.872 105.373 77.6191 101.709 77.6191 93.4461C77.6191 85.1835 70.2536 82.7301 67.1853 74.4516C64.117 66.1732 68.4142 57.6098 68.4142 57.6098L59.6057 51.0963Z" fill="black" stroke="black" stroke-width="0.538765" stroke-linecap="round" stroke-linejoin="round"/>
<path d="M40.8476 65.3897C36.9785 68.3101 33.4583 73.2249 34.6793 81.2185C37.153 97.4429 49.1645 98.5035 41.3947 108.729C33.6248 118.954 26.5526 114.364 27.9718 127.059C29.391 139.753 33.9736 144.336 33.9736 144.336" stroke="white" stroke-width="0.538765" stroke-miterlimit="10"/>
<path d="M49.1328 61.4879C47.5838 61.8515 46.0792 62.3823 44.6453 63.0709" stroke="white" stroke-width="0.538765" stroke-miterlimit="10"/>
<path d="M53.0175 66.0782C53.0175 66.0782 42.774 68.8958 39.5947 77.3562C36.4154 85.8167 49.1088 92.8763 49.8382 98.1631" stroke="white" stroke-width="0.538765" stroke-miterlimit="10"/>
<path d="M53.4692 204.097C53.6119 199.245 53.6753 192.772 53.3819 185.941C52.7635 171.854 35.8918 153.168 35.2813 149.804C34.6708 146.441 36.201 145.847 36.201 145.847L69.6432 131.451C85.1908 141.645 88.9727 171.292 89.9003 185.126L53.4692 204.097Z" fill="url(#paint23_linear_805_3869)" stroke="black" stroke-width="0.538765" stroke-linecap="round" stroke-linejoin="round"/>
<path d="M39.8323 146.742C39.8323 146.742 37.0256 148.491 39.8323 151.292C42.6389 154.094 50.3612 166.005 53.5326 173.009" stroke="black" stroke-width="0.269382" stroke-linecap="round" stroke-linejoin="round"/>
<path d="M54.9201 176.492C54.9201 176.492 57.3779 182.095 57.0211 187.698C56.6643 193.302 56.6722 198.557 56.6722 198.557" stroke="black" stroke-width="0.269382" stroke-linecap="round" stroke-linejoin="round"/>
<path d="M120.52 139.136C119.046 142.966 117.27 151.205 118.451 155.914C119.062 158.36 121.107 163.496 122.923 167.873L77.8337 191.394C77.8812 182.024 77.7623 167.232 76.5651 164.486C74.7971 160.362 60.6369 121.503 61.5011 112.67C62.3653 103.838 79.4907 91.1747 79.4907 91.1747L76.8664 69.6476L92.4934 79.0736C92.4934 79.0736 94.2693 87.6053 96.0374 89.671C97.8054 91.7366 112.259 94.6729 116.39 99.9597C120.52 105.246 119.046 121.455 119.046 122.334C119.046 123.212 121.995 135.337 120.52 139.136Z" fill="white"/>
<mask id="mask2_805_3869" style="mask-type:luminance" maskUnits="userSpaceOnUse" x="61" y="69" width="62" height="123">
<path d="M120.52 139.136C119.046 142.966 117.27 151.205 118.451 155.914C119.062 158.36 121.107 163.496 122.923 167.873L77.8337 191.394C77.8812 182.024 77.7623 167.232 76.5651 164.486C74.7971 160.362 60.6369 121.503 61.5011 112.67C62.3653 103.838 79.4907 91.1747 79.4907 91.1747L76.8664 69.6476L92.4934 79.0736C92.4934 79.0736 94.2693 87.6053 96.0374 89.671C97.8054 91.7366 112.259 94.6729 116.39 99.9597C120.52 105.246 119.046 121.455 119.046 122.334C119.046 123.212 121.995 135.337 120.52 139.136Z" fill="white"/>
</mask>
<g mask="url(#mask2_805_3869)">
<g style="mix-blend-mode:multiply" opacity="0.5">
<path d="M61.5247 112.639C62.4127 103.806 79.5143 91.1431 79.5143 91.1431L76.8663 69.6476L92.4932 79.0737C92.4932 79.0737 93.0086 81.535 93.7538 84.1389C92.7469 84.0518 91.6211 83.9093 90.3605 83.6877C84.3983 82.6351 81.2348 80.522 81.2348 80.522L84.4062 93.834C84.4062 93.834 68.2639 103.331 64.0539 114.855C63.483 116.437 62.8726 117.917 62.2462 119.389C61.7125 117.18 61.4699 114.911 61.5247 112.639Z" fill="url(#paint24_linear_805_3869)"/>
</g>
</g>
<path d="M120.52 139.136C119.046 142.966 117.27 151.205 118.451 155.914C119.062 158.36 121.107 163.496 122.923 167.873L77.8337 191.394C77.8812 182.024 77.7623 167.232 76.5651 164.486C74.7971 160.362 60.6369 121.503 61.5011 112.67C62.3653 103.838 79.4907 91.1747 79.4907 91.1747L76.8664 69.6476L92.4934 79.0736C92.4934 79.0736 94.2693 87.6053 96.0374 89.671C97.8054 91.7366 112.259 94.6729 116.39 99.9597C120.52 105.246 119.046 121.455 119.046 122.334C119.046 123.212 121.995 135.337 120.52 139.136Z" stroke="black" stroke-width="0.538765" stroke-linecap="round" stroke-linejoin="round"/>
<path d="M120.52 139.136C119.046 142.966 117.27 151.205 118.451 155.914C119.062 158.36 121.107 163.496 122.923 167.873L77.8337 191.394C77.8812 182.024 77.7623 167.232 76.5651 164.486C74.7971 160.362 60.6369 121.503 61.5011 112.67C62.0481 107.17 68.8824 100.197 73.9646 95.7096C78.9674 101.004 89.8215 110.881 97.7499 106.481C104.885 102.524 104.434 96.509 103.379 92.9317C108.2 94.7045 113.964 96.968 116.334 100.007C120.465 105.31 118.99 121.503 118.99 122.381C118.99 123.26 121.995 135.337 120.52 139.136Z" fill="black" stroke="black" stroke-width="0.538765" stroke-linecap="round" stroke-linejoin="round"/>
<path d="M94.1817 128.673L103.997 124.075C103.997 124.075 106.764 119.484 108.294 119.484C109.825 119.484 110.752 125.919 110.752 125.919C110.752 125.919 115.961 130.818 114.122 135.717C112.282 140.616 105.535 147.968 97.25 145.214C88.9648 142.46 91.4226 133.889 91.4226 133.889C91.4226 133.889 88.0451 128.072 88.0451 126.845C88.0451 125.618 94.1817 128.673 94.1817 128.673Z" fill="white" stroke="black" stroke-width="0.538765" stroke-linecap="round" stroke-linejoin="round"/>
<path d="M115.208 33.7242C115.208 33.7242 113.139 44.3295 113.44 51.6898C113.741 59.0502 116.683 61.9785 115.818 65.2313C114.954 68.4842 104.314 80.5457 97.8287 81.717C91.3433 82.8883 76.0017 72.8845 71.5777 68.4683C67.1536 64.0521 66.5669 57.5781 67.1536 54.9268C67.7403 52.2755 70.103 31.0808 78.9511 22.5412C87.7993 14.0016 111.077 14.888 115.208 33.7242Z" fill="white"/>
<mask id="mask3_805_3869" style="mask-type:luminance" maskUnits="userSpaceOnUse" x="66" y="17" width="50" height="65">
<path d="M115.208 33.7242C115.208 33.7242 113.139 44.3295 113.44 51.6898C113.741 59.0502 116.683 61.9785 115.818 65.2313C114.954 68.4842 104.314 80.5457 97.8287 81.717C91.3433 82.8883 76.0017 72.8845 71.5777 68.4683C67.1536 64.0521 66.5669 57.5781 67.1536 54.9268C67.7403 52.2755 70.103 31.0808 78.9511 22.5412C87.7993 14.0016 111.077 14.888 115.208 33.7242Z" fill="white"/>
</mask>
<g mask="url(#mask3_805_3869)">
<g style="mix-blend-mode:multiply" opacity="0.5">
<path d="M78.9034 22.5412C82.2096 19.3755 87.5375 17.476 93.127 17.3573L93.4917 28.3425C93.4917 28.3425 95.2519 39.201 88.9329 47.9543C82.6139 56.7076 77.0006 59.169 76.3029 62.6671C75.6052 66.1653 78.7766 69.6476 86.8319 75.6309C89.9819 78.0107 93.3569 80.0782 96.9089 81.8041C90.0032 82.0494 75.7717 72.7025 71.5379 68.4684C67.1138 64.0521 66.5271 57.5782 67.1138 54.9269C67.7005 52.2755 70.0791 31.0808 78.9034 22.5412Z" fill="url(#paint25_linear_805_3869)"/>
</g>
</g>
<path d="M115.208 33.7242C115.208 33.7242 113.139 44.3295 113.44 51.6898C113.741 59.0502 116.683 61.9785 115.818 65.2313C114.954 68.4842 104.314 80.5457 97.8287 81.717C91.3433 82.8883 76.0017 72.8845 71.5777 68.4683C67.1536 64.0521 66.5669 57.5781 67.1536 54.9268C67.7403 52.2755 70.103 31.0808 78.9511 22.5412C87.7993 14.0016 111.077 14.888 115.208 33.7242Z" stroke="black" stroke-width="0.538765" stroke-linecap="round" stroke-linejoin="round"/>
<path d="M103.997 55.5125C103.997 55.5125 104.885 61.1086 106.376 62.8736C105.219 63.8814 103.774 64.5014 102.245 64.6466" stroke="black" stroke-width="0.538765" stroke-linecap="round" stroke-linejoin="round"/>
<path d="M103.411 69.6476C101.489 70.4979 99.3952 70.8878 97.2958 70.7861C95.1965 70.6844 93.15 70.0939 91.32 69.0619" stroke="black" stroke-width="0.538765" stroke-linecap="round" stroke-linejoin="round"/>
<path d="M92.7944 52.5686C92.7944 53.55 93.2543 54.3416 93.8251 54.3416C94.396 54.3416 94.8558 53.55 94.8558 52.5686C94.8558 51.5871 94.396 50.8035 93.8251 50.8035C93.2543 50.8035 92.7944 51.595 92.7944 52.5686Z" fill="black"/>
<path d="M107.391 50.218C107.391 51.1915 107.851 51.983 108.421 51.983C108.992 51.983 109.452 51.1915 109.452 50.218C109.452 49.2444 108.992 48.4529 108.421 48.4529C107.851 48.4529 107.391 49.2444 107.391 50.218Z" fill="black"/>
<path d="M111.371 42.5655C110.544 42.0497 109.621 41.7054 108.658 41.553C107.695 41.4006 106.712 41.4433 105.765 41.6784" stroke="black" stroke-width="0.538765" stroke-linecap="round" stroke-linejoin="round"/>
<path d="M97.5119 42.8574C97.5119 42.8574 95.7438 41.9709 91.9065 44.3296" stroke="black" stroke-width="0.538765" stroke-linecap="round" stroke-linejoin="round"/>
<path d="M95.744 25.7782C95.744 25.7782 103.997 32.5529 108.128 36.6684C112.259 40.7839 114.027 43.7359 120.219 41.0925C126.411 38.4491 130.843 29.308 122.598 18.4179C114.352 7.52767 98.4079 4.28278 82.781 8.699C67.154 13.1152 60.6527 23.1269 59.4793 34.025C58.3059 44.9231 60.6686 56.9846 66.2185 60.2295C71.7684 63.4744 84.216 50.2178 88.6401 41.971C91.4123 36.7593 93.787 31.3464 95.744 25.7782Z" fill="black" stroke="black" stroke-width="0.538765" stroke-linecap="round" stroke-linejoin="round"/>
<path d="M95.7436 25.7782C95.7436 25.7782 118.015 29.0547 119.069 33.9854C120.124 38.9161 113.416 37.5152 113.416 37.5152" stroke="white" stroke-width="0.538765" stroke-miterlimit="10"/>
<path d="M121.94 29.031C123.446 32.2446 122.249 34.3421 122.249 34.3421" stroke="white" stroke-width="0.538765" stroke-miterlimit="10"/>
<path d="M73.5046 15.2996C73.5046 15.2996 95.0541 11.7777 95.0541 21.2908C95.0541 21.2908 108.12 16.7084 116.596 23.0557C117.868 23.9814 119.035 25.0429 120.076 26.2215" stroke="white" stroke-width="0.538765" stroke-miterlimit="10"/>
<path d="M93.968 23.4118C93.968 23.4118 88.4736 41.1083 77.0091 45.6274" stroke="white" stroke-width="0.538765" stroke-miterlimit="10"/>
<path d="M82.5353 28.1684C78.1192 31.8093 71.8002 35.4028 64.2999 35.0466" stroke="white" stroke-width="0.538765" stroke-miterlimit="10"/>
<path d="M89.4008 20.9425C88.3683 22.3603 87.2342 23.7015 86.0074 24.9555" stroke="white" stroke-width="0.538765" stroke-miterlimit="10"/>
<path d="M117.27 44.0367L82.7652 49.925C82.7652 49.925 82.7652 55.1643 84.2399 57.8394C85.7146 60.5144 87.4826 60.5461 91.32 60.5461C95.1574 60.5461 100.493 58.1718 100.755 57.3091C101.365 55.2197 100.953 48.3263 100.953 48.3263L103.704 47.8831C103.704 47.8831 103.347 55.9162 104.822 56.8026C106.297 57.689 116.033 55.9162 117.801 53.5656C119.569 51.215 118.451 43.7359 117.27 44.0367Z" stroke="black" stroke-width="0.538765" stroke-linecap="round" stroke-linejoin="round"/>
<path d="M82.7651 49.9252L67.4236 47.2736V49.3316L82.7651 53.1625V49.9252Z" fill="url(#paint26_linear_805_3869)" stroke="black" stroke-width="0.538765" stroke-linecap="round" stroke-linejoin="round"/>
<path d="M56.1012 51.7576C54.9027 44.3131 57.7127 37.6716 62.3775 36.9232C67.0423 36.1748 71.7955 41.6031 72.9941 49.0475C74.1926 56.492 71.3826 63.1335 66.7178 63.8819C62.053 64.6302 57.2998 59.202 56.1012 51.7576Z" fill="url(#paint27_linear_805_3869)" stroke="black" stroke-width="0.538765" stroke-linecap="round" stroke-linejoin="round"/>
<path d="M53.6358 52.0539C54.6428 58.3221 58.1392 62.9679 61.4295 62.4376C64.7198 61.9073 66.583 56.4068 65.5761 50.1387C64.5692 43.8705 61.0806 39.2327 57.7824 39.7629C54.4842 40.2932 52.6289 45.7937 53.6358 52.0539Z" fill="url(#paint28_linear_805_3869)" stroke="black" stroke-width="0.538765" stroke-linecap="round" stroke-linejoin="round"/>
<path d="M58.29 25.7782C57.72 34.0175 58.6193 42.2923 60.946 50.2178C60.946 50.2178 61.2393 54.9664 56.8153 52.8691C52.3912 50.7718 52.9779 32.8458 53.5725 25.4854C54.1672 18.125 59.7567 20.1828 58.29 25.7782Z" fill="white" stroke="black" stroke-width="0.538765" stroke-linecap="round" stroke-linejoin="round"/>
<path d="M74.7969 11.9359C74.7969 11.9359 68.0181 10.171 64.4899 16.3601C60.9618 22.5491 61.5406 28.1367 56.5615 28.7223C51.5824 29.308 51.2494 23.7204 53.9055 16.6529C56.5615 9.58536 62.159 4.28273 69.8337 3.69707C77.5084 3.1114 81.2824 9.29253 81.2824 9.29253C81.2824 9.29253 77.1596 9.8782 74.7969 11.9359Z" fill="url(#paint29_linear_805_3869)" stroke="black" stroke-width="0.538765" stroke-linecap="round" stroke-linejoin="round"/>
<path d="M75.3917 122.057L95.744 168.285C95.744 168.285 151.196 178.573 156.206 178.573C161.217 178.573 171.27 182.103 173.316 183.322C175.361 184.541 195.412 193.729 191.551 194.299C189.173 194.655 183.02 191.276 183.02 191.276C183.02 191.276 192.756 196.024 191.876 197.457C190.996 198.889 179.191 193.041 179.191 193.041C179.191 193.041 189.981 199.372 187.769 199.728C185.756 200.084 183.322 198.937 181.252 197.457C179.448 196.351 177.504 195.489 175.472 194.893C175.472 194.893 180.229 198.058 180.792 199.499C181.355 200.939 179.611 200.085 177.843 199.499C174.534 198.074 171.336 196.408 168.273 194.513C167.1 193.626 163.556 191.861 161.193 189.804L156.476 185.68C156.476 185.68 124.921 186.559 110.491 185.973C96.0611 185.388 88.9572 183.915 83.6452 178.613C78.3331 173.31 63.2929 139.745 59.7568 130.62C56.2207 121.495 58.5755 116.192 62.1353 110.043" fill="white"/>
<mask id="mask4_805_3869" style="mask-type:luminance" maskUnits="userSpaceOnUse" x="58" y="110" width="135" height="91">
<path d="M75.3917 122.057L95.744 168.285C95.744 168.285 151.196 178.573 156.206 178.573C161.217 178.573 171.27 182.103 173.316 183.322C175.361 184.541 195.412 193.729 191.551 194.299C189.173 194.655 183.02 191.276 183.02 191.276C183.02 191.276 192.756 196.024 191.876 197.457C190.996 198.889 179.191 193.041 179.191 193.041C179.191 193.041 189.981 199.372 187.769 199.728C185.756 200.084 183.322 198.937 181.252 197.457C179.448 196.351 177.504 195.489 175.472 194.893C175.472 194.893 180.229 198.058 180.792 199.499C181.355 200.939 179.611 200.085 177.843 199.499C174.534 198.074 171.336 196.408 168.273 194.513C167.1 193.626 163.556 191.861 161.193 189.804L156.476 185.68C156.476 185.68 124.921 186.559 110.491 185.973C96.0611 185.388 88.9572 183.915 83.6452 178.613C78.3331 173.31 63.2929 139.745 59.7568 130.62C56.2207 121.495 58.5755 116.192 62.1353 110.043" fill="white"/>
</mask>
<g mask="url(#mask4_805_3869)">
<g style="mix-blend-mode:multiply" opacity="0.5">
<path d="M74.5673 152.345C84.0815 170.208 92.113 175.811 100.533 180.045C108.953 184.28 155.279 185.3 155.279 185.3L153.328 185.767C144.964 185.973 122.154 186.456 110.515 185.981C96.0613 185.395 88.9813 183.923 83.6692 178.621C78.3572 173.318 63.3169 139.753 59.7808 130.628C58.1396 126.402 57.7749 122.998 58.1951 119.944L60.201 121.202C64.3568 131.862 69.1543 142.262 74.5673 152.345Z" fill="url(#paint30_linear_805_3869)"/>
</g>
</g>
<path d="M75.3917 122.057L95.744 168.285C95.744 168.285 151.196 178.573 156.206 178.573C161.217 178.573 171.27 182.103 173.316 183.322C175.361 184.541 195.412 193.729 191.551 194.299C189.173 194.655 183.02 191.276 183.02 191.276C183.02 191.276 192.756 196.024 191.876 197.457C190.996 198.889 179.191 193.041 179.191 193.041C179.191 193.041 189.981 199.372 187.769 199.728C185.756 200.084 183.322 198.937 181.252 197.457C179.448 196.351 177.504 195.489 175.472 194.893C175.472 194.893 180.229 198.058 180.792 199.499C181.355 200.939 179.611 200.085 177.843 199.499C174.534 198.074 171.336 196.408 168.273 194.513C167.1 193.626 163.556 191.861 161.193 189.804L156.476 185.68C156.476 185.68 124.921 186.559 110.491 185.973C96.0611 185.388 88.9572 183.915 83.6452 178.613C78.3331 173.31 63.2929 139.745 59.7568 130.62C56.2207 121.495 58.5755 116.192 62.1353 110.043" stroke="black" stroke-width="0.538765" stroke-miterlimit="10"/>
<path d="M75.7326 120.893L81.9247 136.92C77.3738 134.498 68.8349 131.245 62.0244 136.128C61.065 133.881 60.2801 131.981 59.7568 130.628C56.2128 121.503 58.5755 116.2 62.1354 110.051" fill="black"/>
<path d="M75.7326 120.893L81.9247 136.92C77.3738 134.498 68.8349 131.245 62.0244 136.128C61.065 133.881 60.2801 131.981 59.7568 130.628C56.2128 121.503 58.5755 116.2 62.1354 110.051" stroke="black" stroke-width="0.538765" stroke-linecap="round" stroke-linejoin="round"/>
<path d="M119.553 142.159C125.539 143.908 149.181 150.817 151.377 151.332C152.738 151.662 154.117 151.908 155.508 152.068C155.508 152.068 163.77 148.53 165.982 146.916C168.194 145.301 170.85 146.322 172.174 146.916C173.498 147.509 174.552 151.625 172.023 151.625C169.494 151.625 169.074 151.474 166.275 153.833C163.476 156.191 163.468 157.371 161.407 158.249C159.346 159.128 155.944 158.542 154.176 158.249C152.59 157.988 125.174 156.168 118.427 155.811C117.547 152.107 118.427 146.322 119.553 142.159Z" fill="white"/>
<mask id="mask5_805_3869" style="mask-type:luminance" maskUnits="userSpaceOnUse" x="118" y="142" width="56" height="17">
<path d="M119.553 142.159C125.539 143.908 149.181 150.817 151.377 151.332C152.738 151.662 154.117 151.908 155.508 152.068C155.508 152.068 163.77 148.53 165.982 146.916C168.194 145.301 170.85 146.322 172.174 146.916C173.498 147.509 174.552 151.625 172.023 151.625C169.494 151.625 169.074 151.474 166.275 153.833C163.476 156.191 163.468 157.371 161.407 158.249C159.346 159.128 155.944 158.542 154.176 158.249C152.59 157.988 125.174 156.168 118.427 155.811C117.547 152.107 118.427 146.322 119.553 142.159Z" fill="white"/>
</mask>
<g mask="url(#mask5_805_3869)">
<g style="mix-blend-mode:multiply" opacity="0.5">
<path d="M118.609 146.417L154.176 158.289C152.591 158.027 125.174 156.207 118.427 155.851C117.824 153.271 118.046 149.749 118.609 146.417Z" fill="url(#paint31_linear_805_3869)"/>
</g>
</g>
<path d="M119.553 142.159C125.539 143.908 149.181 150.817 151.377 151.332C152.738 151.662 154.117 151.908 155.508 152.068C155.508 152.068 163.77 148.53 165.982 146.916C168.194 145.301 170.85 146.322 172.174 146.916C173.498 147.509 174.552 151.625 172.023 151.625C169.494 151.625 169.074 151.474 166.275 153.833C163.476 156.191 163.468 157.371 161.407 158.249C159.346 159.128 155.944 158.542 154.176 158.249C152.59 157.988 125.174 156.168 118.427 155.811C117.547 152.107 118.427 146.322 119.553 142.159Z" stroke="black" stroke-width="0.538765" stroke-linecap="round" stroke-linejoin="round"/>
<path d="M178.667 151.775C178.667 151.775 181.767 153.54 182.632 155.598C183.496 157.656 181.752 157.07 181.157 156.635C180.562 156.2 178.057 154.126 178.057 154.126L178.667 151.775Z" fill="white" stroke="black" stroke-width="0.538765" stroke-linecap="round" stroke-linejoin="round"/>
<path d="M177.779 150.295C178.36 150.667 178.819 151.2 179.101 151.828C179.382 152.457 179.474 153.153 179.365 153.833C179.072 156.334 176.416 160.015 176.114 158.543C175.813 157.071 177.779 150.295 177.779 150.295Z" fill="white" stroke="black" stroke-width="0.538765" stroke-linecap="round" stroke-linejoin="round"/>
<path d="M174.093 148.087C174.093 148.087 176.899 148.823 177.78 150.295C178.66 151.767 177.193 158.107 176.154 158.542C175.934 158.641 175.694 158.688 175.452 158.68C175.211 158.672 174.974 158.609 174.761 158.496C174.548 158.383 174.363 158.223 174.221 158.028C174.079 157.833 173.984 157.608 173.942 157.371C173.649 156.334 174.093 148.087 174.093 148.087Z" fill="white" stroke="black" stroke-width="0.538765" stroke-linecap="round" stroke-linejoin="round"/>
<path d="M170.549 146.615C170.549 146.615 174.243 146.615 174.679 148.388C175.115 150.161 175.861 157.806 175.123 158.985C174.386 160.164 173.205 159.721 172.618 158.249C172.031 156.777 170.549 146.615 170.549 146.615Z" fill="white" stroke="black" stroke-width="0.538765" stroke-linecap="round" stroke-linejoin="round"/>
<path d="M167.195 132.899L173.252 160.433L172.301 163.947C172.287 164.001 172.258 164.05 172.219 164.09C172.18 164.129 172.13 164.158 172.077 164.172C172.023 164.187 171.966 164.187 171.912 164.172C171.858 164.158 171.809 164.129 171.77 164.09L169.122 161.462L164.698 133.635L167.195 132.899Z" fill="black"/>
<path d="M161.257 155.123C161.257 155.123 164.65 156.453 167.306 157.632C169.962 158.811 172.618 159.397 172.325 161.02C172.031 162.642 170.85 162.049 168.931 161.463C166.299 160.546 163.578 159.904 160.813 159.547C157.126 159.104 154.177 155.716 154.177 155.716" fill="white"/>
<path d="M161.257 155.123C161.257 155.123 164.65 156.453 167.306 157.632C169.962 158.811 172.618 159.397 172.325 161.02C172.031 162.642 170.85 162.049 168.931 161.463C166.299 160.546 163.578 159.904 160.813 159.547C157.126 159.104 154.177 155.716 154.177 155.716" stroke="black" stroke-width="0.538765" stroke-linecap="round" stroke-linejoin="round"/>
<path d="M173.173 160.861L172.555 163.457C172.524 163.582 172.462 163.697 172.373 163.791C172.284 163.884 172.172 163.953 172.049 163.989C171.925 164.026 171.794 164.03 171.669 164.001C171.543 163.971 171.428 163.909 171.334 163.821L169.883 162.444" stroke="white" stroke-width="0.269382" stroke-linecap="round" stroke-linejoin="round"/>
<path d="M173.244 160.433L170.112 146.488" stroke="white" stroke-width="0.269382" stroke-linecap="round" stroke-linejoin="round"/>
<path d="M281.602 105.753L241.603 142.887" stroke="black" stroke-width="0.269382" stroke-linecap="round" stroke-linejoin="round"/>
<defs>
<linearGradient id="paint0_linear_805_3869" x1="227.697" y1="167.786" x2="227.697" y2="234.797" gradientUnits="userSpaceOnUse">
<stop stop-color="#7DFFAF"/>
<stop offset="1" stop-color="#9955E8"/>
</linearGradient>
<linearGradient id="paint1_linear_805_3869" x1="105.599" y1="224.769" x2="105.599" y2="241.659" gradientUnits="userSpaceOnUse">
<stop stop-color="#7DFFAF"/>
<stop offset="1" stop-color="#9955E8"/>
</linearGradient>
<linearGradient id="paint2_linear_805_3869" x1="116.556" y1="182.562" x2="116.556" y2="191.395" gradientUnits="userSpaceOnUse">
<stop stop-color="#7DFFAF"/>
<stop offset="1" stop-color="#9955E8"/>
</linearGradient>
<linearGradient id="paint3_linear_805_3869" x1="149.324" y1="156.175" x2="149.324" y2="161.455" gradientUnits="userSpaceOnUse">
<stop stop-color="#7DFFAF"/>
<stop offset="1" stop-color="#9955E8"/>
</linearGradient>
<linearGradient id="paint4_linear_805_3869" x1="63.3325" y1="233.483" x2="63.3325" y2="253" gradientUnits="userSpaceOnUse">
<stop stop-color="#7DFFAF"/>
<stop offset="1" stop-color="#9955E8"/>
</linearGradient>
<linearGradient id="paint5_linear_805_3869" x1="139.925" y1="204.493" x2="139.925" y2="223.06" gradientUnits="userSpaceOnUse">
<stop stop-color="#7DFFAF"/>
<stop offset="1" stop-color="#9955E8"/>
</linearGradient>
<linearGradient id="paint6_linear_805_3869" x1="128.144" y1="229.257" x2="128.144" y2="243.495" gradientUnits="userSpaceOnUse">
<stop stop-color="#7DFFAF"/>
<stop offset="1" stop-color="#9955E8"/>
</linearGradient>
<linearGradient id="paint7_linear_805_3869" x1="65.3262" y1="226.716" x2="65.3262" y2="247.761" gradientUnits="userSpaceOnUse">
<stop stop-color="#7DFFAF"/>
<stop offset="1" stop-color="#9955E8"/>
</linearGradient>
<linearGradient id="paint8_linear_805_3869" x1="65.3382" y1="216.61" x2="65.3382" y2="236.823" gradientUnits="userSpaceOnUse">
<stop stop-color="#7DFFAF"/>
<stop offset="1" stop-color="#9955E8"/>
</linearGradient>
<linearGradient id="paint9_linear_805_3869" x1="65.3381" y1="218.121" x2="65.3381" y2="235.311" gradientUnits="userSpaceOnUse">
<stop stop-color="#7DFFAF"/>
<stop offset="1" stop-color="#9955E8"/>
</linearGradient>
<linearGradient id="paint10_linear_805_3869" x1="65.6594" y1="202.747" x2="65.6594" y2="231.762" gradientUnits="userSpaceOnUse">
<stop stop-color="#7DFFAF"/>
<stop offset="1" stop-color="#9955E8"/>
</linearGradient>
<linearGradient id="paint11_linear_805_3869" x1="65.6594" y1="202.747" x2="65.6594" y2="231.762" gradientUnits="userSpaceOnUse">
<stop stop-color="#7DFFAF"/>
<stop offset="1" stop-color="#9955E8"/>
</linearGradient>
<linearGradient id="paint12_linear_805_3869" x1="104.529" y1="211.719" x2="104.529" y2="227.714" gradientUnits="userSpaceOnUse">
<stop stop-color="#7DFFAF"/>
<stop offset="1" stop-color="#9955E8"/>
</linearGradient>
<linearGradient id="paint13_linear_805_3869" x1="104.418" y1="196.286" x2="104.418" y2="211.647" gradientUnits="userSpaceOnUse">
<stop stop-color="#7DFFAF"/>
<stop offset="1" stop-color="#9955E8"/>
</linearGradient>
<linearGradient id="paint14_linear_805_3869" x1="104.418" y1="196.286" x2="104.418" y2="211.647" gradientUnits="userSpaceOnUse">
<stop stop-color="#7DFFAF"/>
<stop offset="1" stop-color="#9955E8"/>
</linearGradient>
<linearGradient id="paint15_linear_805_3869" x1="104.418" y1="192.566" x2="104.418" y2="205.981" gradientUnits="userSpaceOnUse">
<stop stop-color="#7DFFAF"/>
<stop offset="1" stop-color="#9955E8"/>
</linearGradient>
<linearGradient id="paint16_linear_805_3869" x1="221.821" y1="100.234" x2="221.821" y2="113.653" gradientUnits="userSpaceOnUse">
<stop stop-color="#7DFFAF"/>
<stop offset="1" stop-color="#9955E8"/>
</linearGradient>
<linearGradient id="paint17_linear_805_3869" x1="221.17" y1="102.305" x2="221.17" y2="105.67" gradientUnits="userSpaceOnUse">
<stop stop-color="#7DFFAF"/>
<stop offset="1" stop-color="#9955E8"/>
</linearGradient>
<linearGradient id="paint18_linear_805_3869" x1="210.754" y1="160.353" x2="210.754" y2="226.059" gradientUnits="userSpaceOnUse">
<stop stop-color="#7DFFAF"/>
<stop offset="1" stop-color="#9955E8"/>
</linearGradient>
<linearGradient id="paint19_linear_805_3869" x1="248.395" y1="101.892" x2="248.395" y2="226.059" gradientUnits="userSpaceOnUse">
<stop stop-color="#7DFFAF"/>
<stop offset="1" stop-color="#9955E8"/>
</linearGradient>
<linearGradient id="paint20_linear_805_3869" x1="264.925" y1="134.096" x2="264.925" y2="155.884" gradientUnits="userSpaceOnUse">
<stop stop-color="#7DFFAF"/>
<stop offset="1" stop-color="#9955E8"/>
</linearGradient>
<linearGradient id="paint21_linear_805_3869" x1="259.65" y1="164.846" x2="259.65" y2="172.377" gradientUnits="userSpaceOnUse">
<stop stop-color="#7DFFAF"/>
<stop offset="1" stop-color="#9955E8"/>
</linearGradient>
<linearGradient id="paint22_linear_805_3869" x1="238.852" y1="174.284" x2="238.852" y2="193.112" gradientUnits="userSpaceOnUse">
<stop stop-color="#7DFFAF"/>
<stop offset="1" stop-color="#9955E8"/>
</linearGradient>
<linearGradient id="paint23_linear_805_3869" x1="62.5189" y1="131.451" x2="62.5189" y2="204.097" gradientUnits="userSpaceOnUse">
<stop stop-color="#7DFFAF"/>
<stop offset="1" stop-color="#9955E8"/>
</linearGradient>
<linearGradient id="paint24_linear_805_3869" x1="77.6355" y1="69.6476" x2="77.6355" y2="119.389" gradientUnits="userSpaceOnUse">
<stop stop-color="#7DFFAF"/>
<stop offset="1" stop-color="#9955E8"/>
</linearGradient>
<linearGradient id="paint25_linear_805_3869" x1="81.9164" y1="17.3573" x2="81.9164" y2="81.8088" gradientUnits="userSpaceOnUse">
<stop stop-color="#7DFFAF"/>
<stop offset="1" stop-color="#9955E8"/>
</linearGradient>
<linearGradient id="paint26_linear_805_3869" x1="75.0944" y1="47.2736" x2="75.0944" y2="53.1625" gradientUnits="userSpaceOnUse">
<stop stop-color="#7DFFAF"/>
<stop offset="1" stop-color="#9955E8"/>
</linearGradient>
<linearGradient id="paint27_linear_805_3869" x1="72.9941" y1="49.0475" x2="56.1028" y2="51.767" gradientUnits="userSpaceOnUse">
<stop stop-color="#7DFFAF"/>
<stop offset="1" stop-color="#9955E8"/>
</linearGradient>
<linearGradient id="paint28_linear_805_3869" x1="59.6056" y1="39.7216" x2="59.6056" y2="62.4788" gradientUnits="userSpaceOnUse">
<stop stop-color="#7DFFAF"/>
<stop offset="1" stop-color="#9955E8"/>
</linearGradient>
<linearGradient id="paint29_linear_805_3869" x1="66.7707" y1="3.65793" x2="66.7707" y2="28.7645" gradientUnits="userSpaceOnUse">
<stop stop-color="#7DFFAF"/>
<stop offset="1" stop-color="#9955E8"/>
</linearGradient>
<linearGradient id="paint30_linear_805_3869" x1="106.657" y1="119.944" x2="106.657" y2="186.183" gradientUnits="userSpaceOnUse">
<stop stop-color="#7DFFAF"/>
<stop offset="1" stop-color="#9955E8"/>
</linearGradient>
<linearGradient id="paint31_linear_805_3869" x1="136.122" y1="146.417" x2="136.122" y2="158.289" gradientUnits="userSpaceOnUse">
<stop stop-color="#7DFFAF"/>
<stop offset="1" stop-color="#9955E8"/>
</linearGradient>
</defs>
</svg>
