<svg width="45" height="104" viewBox="0 0 45 104" fill="none" xmlns="http://www.w3.org/2000/svg">
<g id="Graphic" clip-path="url(#clip0_805_4126)">
<path id="Vector" d="M44.5646 13.8078C42.6736 20.5845 41.0671 27.1911 37.6784 33.3676C35.9351 36.5451 34.3939 39.7306 31.9216 42.4268C28.3968 46.2708 23.0824 50.6406 17.5699 50.87C16.7644 50.9035 15.0371 50.6088 16.849 50.622C18.8147 50.6364 20.9699 50.8426 22.8915 51.2662C25.6796 51.881 27.625 54.4036 28.8717 56.801C31.101 61.0877 31.4051 65.9536 31.3138 70.7216C31.2223 75.4914 30.3026 80.098 29.7671 84.8209C29.5739 86.5247 29.3569 88.2271 29.0834 89.9201C29.062 90.0523 28.736 91.9421 28.6189 91.5003C27.9653 89.0351 28.7566 85.7086 29.1439 83.2758C29.7636 79.383 30.9742 75.6412 32.3891 71.9696C33.376 69.4082 34.396 66.6027 36.0988 64.3999C38.1283 61.7744 41.3474 60.6147 44.4347 59.3103C44.4347 59.3103 52.483 58.2904 51.6386 56.6288C49.6915 52.7975 41.5622 48.0381 40.8896 43.7276C40.1219 38.8068 41.1163 33.3819 42.2338 28.5904C43.419 23.5085 44.4212 18.3567 46.1217 13.424" stroke="#7dccff" stroke-width="1.5" stroke-linecap="round"/>
</g>
<defs>
<clipPath id="clip0_805_4126">
<rect width="45" height="95" fill="white" transform="translate(25) rotate(15)"/>
</clipPath>
</defs>
</svg>
