<svg width="47" height="64" viewBox="0 0 47 64" fill="none" xmlns="http://www.w3.org/2000/svg">
<g id="Graphic" clip-path="url(#clip0_805_4117)">
<path id="Vector" d="M15.6812 1.15643C14.3133 4.66787 14.7697 7.9234 14.9023 11.6305C15.0746 16.4442 15.2209 21.2275 15.5705 26.0327" stroke="#7dccff" stroke-width="1.5" stroke-linecap="round"/>
<path id="Vector_2" d="M15.2877 34.6526C14.2861 39.4753 14.7366 44.1761 15.1538 49.0521C15.5499 53.6827 16.1058 58.2959 16.6526 62.9104" stroke="#7dccff" stroke-width="1.5" stroke-linecap="round"/>
<path id="Vector_3" d="M-15.1359 35.784C-12.0633 34.4168 -9.16661 34.3613 -5.85965 34.1369C-0.856299 33.7973 3.96381 33.151 8.88077 32.1934" stroke="#7dccff" stroke-width="1.5" stroke-linecap="round"/>
<path id="Vector_4" d="M20.0098 30.7792C28.5058 30.2352 36.8682 28.8246 45.2931 27.6558" stroke="#7dccff" stroke-width="1.5" stroke-linecap="round"/>
<path id="Vector_5" d="M21.5946 26.6305L24.3177 21.6902" stroke="#7dccff" stroke-width="1.5" stroke-linecap="round"/>
<path id="Vector_6" d="M9.12654 38.5921L5.81995 41.8597" stroke="#7dccff" stroke-width="1.5" stroke-linecap="round"/>
<path id="Vector_7" d="M24.1037 37.3085L27.3909 39.5258" stroke="#7dccff" stroke-width="1.5" stroke-linecap="round"/>
<path id="Vector_8" d="M8.03732 23.7324C4.47549 22.6545 1.30612 21.0713 -2.07712 19.5507" stroke="#7dccff" stroke-width="1.5" stroke-linecap="round"/>
</g>
<defs>
<clipPath id="clip0_805_4117">
<rect width="62.4762" height="64" fill="white" transform="translate(-16)"/>
</clipPath>
</defs>
</svg>
