<svg width="35" height="35" viewBox="0 0 35 35" fill="none" xmlns="http://www.w3.org/2000/svg">
<path fill-rule="evenodd" clip-rule="evenodd" d="M17.4991 0C7.83506 0 0 7.83551 0 17.5009C0 25.2328 5.01308 31.7921 11.9678 34.1048C12.8437 34.2668 13.1622 33.7279 13.1622 33.2626C13.1622 32.8479 13.147 31.7481 13.1394 30.2862C8.27122 31.3447 7.2441 27.9399 7.2441 27.9399C6.44808 25.9184 5.3007 25.3808 5.3007 25.3808C3.71179 24.2958 5.42141 24.3169 5.42141 24.3169C7.17769 24.4412 8.10205 26.1199 8.10205 26.1199C9.66269 28.7942 12.1984 28.0202 13.195 27.5751C13.3534 26.442 13.8066 25.6725 14.306 25.2341C10.4206 24.7926 6.33545 23.2912 6.33545 16.5855C6.33545 14.6744 7.01705 13.112 8.13615 11.8883C7.95712 11.4477 7.35538 9.66852 8.30801 7.25801C8.30801 7.25801 9.77712 6.78776 13.121 9.05333C14.516 8.6634 16.0134 8.46865 17.5018 8.46282C18.9879 8.4691 20.4858 8.6634 21.8826 9.05333C25.2242 6.78776 26.6911 7.25801 26.6911 7.25801C27.646 9.66852 27.0447 11.4477 26.8652 11.8883C27.987 13.112 28.6637 14.6744 28.6637 16.5855C28.6637 23.3069 24.5727 24.7876 20.6742 25.2193C21.3015 25.76 21.8615 26.8302 21.8615 28.4631C21.8615 30.8013 21.8404 32.6882 21.8404 33.2621C21.8404 33.731 22.155 34.2762 23.0435 34.1026C29.9905 31.7849 35 25.2305 35 17.5009C35 7.83551 27.1649 0 17.4991 0Z" fill="#24292F"/>
</svg>
