<svg width="35" height="28" viewBox="0 0 35 28" fill="none" xmlns="http://www.w3.org/2000/svg">
<path d="M33.8382 0H1.16182C0.520909 0 0 0.521364 0 1.16227V3.50045C0 3.60818 0.116818 3.73182 0.212273 3.78182L17.3877 13.5923C17.4323 13.6182 17.4823 13.63 17.5323 13.63C17.5832 13.63 17.6345 13.6168 17.6795 13.59L34.3359 3.79136C34.4295 3.73909 34.6777 3.60091 34.7709 3.53727C34.8836 3.46046 35 3.39091 35 3.25318V1.16182C35 0.521364 34.4791 0 33.8382 0Z" fill="#DB4437"/>
<path d="M34.855 7.02591C34.7641 6.97318 34.6532 6.97545 34.5618 7.02773L25.1359 12.5736C25.0605 12.6173 25.0082 12.6945 24.9955 12.7818C24.9841 12.8686 25.0114 12.9573 25.07 13.0214L34.4973 23.1836C34.5532 23.2441 34.6295 23.2764 34.7095 23.2764C34.7455 23.2764 34.7818 23.2695 34.8159 23.2568C34.9273 23.2127 35 23.1059 35 22.9859V7.27818C35 7.17363 34.945 7.07773 34.855 7.02591Z" fill="#DB4437"/>
<path d="M22.4196 14.436C22.3268 14.3355 22.1778 14.3132 22.06 14.3823L18.2818 16.6055C17.8382 16.8664 17.27 16.8687 16.8237 16.6151L13.4987 14.7155C13.3887 14.6532 13.25 14.6682 13.1573 14.7546L0.530937 26.4664C0.463664 26.5292 0.430028 26.6196 0.440028 26.711C0.450028 26.8023 0.503209 26.8842 0.582754 26.9301C0.779118 27.0455 0.968664 27.1005 1.16139 27.1005H33.5037C33.6196 27.1005 33.7241 27.0319 33.7696 26.9255C33.8159 26.8201 33.795 26.6969 33.7159 26.6123L22.4196 14.436Z" fill="#DB4437"/>
<path d="M10.3791 13.369C10.4473 13.3067 10.4814 13.2149 10.4714 13.1235C10.4614 13.0317 10.4068 12.9503 10.3268 12.904L0.433182 7.25307C0.345 7.20217 0.233636 7.20307 0.143636 7.25489C0.0545454 7.30671 0 7.40262 0 7.5058V22.3331C0 22.4481 0.0681818 22.5526 0.173636 22.5985C0.210909 22.6153 0.250455 22.6235 0.290455 22.6235C0.361818 22.6235 0.433182 22.5967 0.487727 22.5458L10.3791 13.369Z" fill="#DB4437"/>
</svg>
