<svg width="35" height="35" viewBox="0 0 35 35" fill="none" xmlns="http://www.w3.org/2000/svg">
<path d="M32.4076 0H2.58368C1.15743 0 0 1.13021 0 2.52194V32.4747C0 33.8683 1.15743 35 2.58368 35H32.4076C33.8348 35 35 33.8683 35 32.4747V2.52194C35 1.13021 33.8348 0 32.4076 0ZM10.3804 29.8249H5.18681V13.1226H10.3804V29.8249ZM7.78361 10.8388C6.11965 10.8388 4.77458 9.49035 4.77458 7.82785C4.77458 6.16778 6.11965 4.81931 7.78361 4.81931C9.44368 4.81931 10.7922 6.16778 10.7922 7.82785C10.7922 9.49035 9.44368 10.8388 7.78361 10.8388ZM29.8229 29.8249H24.6376V21.7029C24.6376 19.7653 24.5997 17.274 21.9392 17.274C19.2374 17.274 18.8256 19.3842 18.8256 21.5624V29.8253H13.6364V13.1226H18.6166V15.4034H18.6876C19.3808 14.0909 21.0744 12.706 23.6002 12.706C28.8531 12.706 29.8234 16.1642 29.8234 20.6631L29.8229 29.8249Z" fill="#0A66C2"/>
</svg>
