<svg width="1366" height="183" viewBox="0 0 1366 183" fill="none" xmlns="http://www.w3.org/2000/svg">
<path d="M1366.96 182.442C1341.89 177.699 1316.14 173.206 1291.91 166.158C1253.36 154.944 1215.24 142.829 1178.06 129.555C1152.23 120.332 1128.48 108.308 1103.46 97.9406C1082.67 89.3261 1061.35 81.3282 1040.31 73.01C1021.21 65.4616 1002.47 57.434 983.03 50.3473C934.778 32.7587 883.029 22.4165 829.381 17.3251C800.789 14.6116 771.617 13.0508 742.83 13.6861C715.302 14.2936 687.497 17.0676 660.594 21.3037C615.295 28.4363 570.161 36.4484 525.785 45.9707C465.883 58.8249 406.961 73.8898 347.24 87.1793C306.43 96.2608 265.302 104.877 223.69 111.892C196.925 116.404 169.136 118.79 141.609 120.075C94.676 122.266 47.5887 122.841 -0.716898 124.096C-2.00005 82.7182 -2.00005 41.3403 -2.00005 -1.1579e-05C454.32 -1.1579e-05 910.64 -1.1579e-05 1366.96 -1.1579e-05C1366.96 60.5954 1366.96 121.071 1366.96 182.442Z" fill="#DFB0B0"/>
</svg>
