<svg width="1364" height="183" viewBox="0 0 1364 183" fill="none" xmlns="http://www.w3.org/2000/svg">
<path d="M0 182.442C25.0161 177.699 50.7152 173.206 74.892 166.158C113.358 154.944 151.396 142.829 188.488 129.555C214.262 120.332 237.961 108.308 262.931 97.9406C283.678 89.3262 304.948 81.3283 325.949 73.01C345.006 65.4616 363.701 57.434 383.1 50.3473C431.247 32.7588 482.885 22.4165 536.417 17.3251C564.947 14.6116 594.056 13.0508 622.781 13.6861C650.249 14.2936 677.994 17.0676 704.839 21.3037C750.039 28.4363 795.077 36.4484 839.356 45.9707C899.129 58.825 957.924 73.8899 1017.51 87.1794C1058.24 96.2609 1099.28 104.877 1140.8 111.892C1167.51 116.404 1195.23 118.79 1222.7 120.075C1269.53 122.266 1316.52 122.841 1364.72 124.096C1366 82.7182 1366 41.3403 1366 1.89386e-05C910.667 1.89386e-05 455.333 1.89386e-05 0 1.89386e-05C0 60.5955 0 121.071 0 182.442Z" fill="#F5E4D7"/>
</svg>
